<?xml version="1.0" encoding="utf-8"?>
<!-- Generator: Adobe Illustrator 24.0.2, SVG Export Plug-In . SVG Version: 6.00 Build 0)  -->
<svg version="1.1" id="Layer_1" xmlns="http://www.w3.org/2000/svg" xmlns:xlink="http://www.w3.org/1999/xlink" x="0px" y="0px"
	 viewBox="0 0 116.28 116.28" style="enable-background:new 0 0 116.28 116.28;" xml:space="preserve">
<style type="text/css">
	.st0{clip-path:url(#SVGID_2_);fill:#145790;}
	.st1{clip-path:url(#SVGID_2_);fill:#184576;}
	.st2{clip-path:url(#SVGID_2_);fill:#010101;}
	.st3{clip-path:url(#SVGID_2_);fill:#FFFFFF;}
	.st4{fill:#145790;}
	.st5{fill:#FFFFFF;}
</style>
<g>
	<defs>
		<path id="SVGID_1_" d="M16.34,38.91c0,0-4.61,13-4.59,13.16c0.02,0.16,4.55,3.93,4.55,3.93l4.07-0.5l2.65-4.74l1.86-2.46
			l2.04-0.76l18.41-0.28l7.46-8.06l-23.14-5.23L16.34,38.91z"/>
	</defs>
	<clipPath id="SVGID_2_">
		<use xlink:href="#SVGID_1_"  style="overflow:visible;"/>
	</clipPath>
	<path class="st0" d="M17.81,41.38c0.08,0.68,1.98,1.1,4.29,1.93c2.31,0.83,4.45,1.6,5,1.78c0.56,0.18,0.9,0.09,1.04-0.14
		c0.01,1.11,0,1.71,0.05,2.09c0.05,0.38,0.27,0.53,1.67,0.13c1.4-0.4,3.27-0.5,4.65-0.49c1.38,0.01,2.64,0.14,3.85,0.48
		c1.21,0.34,1.53,0.22,1.77-0.09c0.24-0.3-0.02-1.99,0.31-2.1c0.33-0.11,1.72-0.45,3.56-1.27c1.83-0.82,4.61-1.59,5.71-2.2
		c1.11-0.6,1.15-0.68,0.19-1.18c-0.96-0.5-3.3-0.85-5.31-1.53c-2.01-0.68-5.26-1.85-7.17-2.53c-1.91-0.68-2.85-1.02-6.17,0.25
		c-2.26,0.74-4.68,1.54-6.9,2.27c-2.22,0.73-4.06,1.32-5.21,1.67C18.01,40.83,17.78,41.13,17.81,41.38"/>
	<path class="st1" d="M29.35,43.85c-0.06,0.05-0.12,0.11-0.18,0.16c-1.31,1.15-1.45,1.21-2.23,0.34c-0.8-0.9-0.07-2.15,2.88-2.76
		c2.96-0.6,2.93-1.38,6.04-0.2c3.11,1.18,4.23-0.25,5.34,1.18c1.1,1.43-0.43,2.56-1.38,2.51c-0.95-0.05-0.08-2.16-2.66-1.25
		c-2.58,0.9-3.04-0.61-5.17-0.59C30.13,43.26,29.48,43.73,29.35,43.85"/>
	<path class="st2" d="M34.4,49.19c-0.11,0-0.22,0-0.34,0c-0.94-0.01-1.94-0.08-2.82-0.2c-0.83-0.11-1.48-0.25-1.84-0.39
		c-0.34-0.14-0.61-0.29-0.8-0.46c-0.19-0.17-0.33-0.36-0.42-0.59c-0.03-0.09-0.06-0.19-0.08-0.29c-0.08-0.15-0.08-0.35-0.08-0.55
		v-0.07c0-0.25-0.01-0.44-0.01-0.67c-0.01-0.36-0.02-0.8-0.02-1.7c0-0.4,0.09-0.73,0.29-1.01c0.19-0.27,0.46-0.48,0.84-0.65
		c0.65-0.29,1.6-0.45,3.11-0.53c0.68-0.04,1.25-0.05,1.73-0.05c-0.08-1.77-0.16-3.86-0.21-5.2c-0.02-0.51,0.11-0.86,0.39-1.07
		c0.39-0.28,1.05-0.28,2.14,0c0.97,0.26,2.26,0.73,3.74,1.28c1.01,0.37,2.16,0.79,3.4,1.22c1.22,0.42,2.48,0.79,3.76,1.09
		c0.91,0.22,1.67,0.43,2.24,0.63c0.37,0.13,0.67,0.25,0.87,0.37c0.28,0.15,0.42,0.3,0.43,0.45c0.03,0.26-0.28,0.51-1.06,0.86
		c-0.63,0.28-1.48,0.59-2.47,0.95c-1.28,0.46-2.73,0.99-4.01,1.58c-1.11,0.51-1.82,0.67-2.24,0.76c-0.27,0.06-0.41,0.1-0.49,0.16
		c0,0.14-0.01,0.28-0.02,0.42c-0.01,0.2-0.02,0.4-0.02,0.61c-0.01,0.44-0.05,0.79-0.19,1.02c-0.1,0.42-0.38,0.78-0.84,1.08
		c-0.54,0.34-1.33,0.6-2.35,0.76C36.28,49.13,35.38,49.19,34.4,49.19 M28.48,47.52c0.15,0.34,0.47,0.59,1.04,0.82
		c0.33,0.13,0.97,0.27,1.77,0.37c0.86,0.11,1.85,0.18,2.78,0.2c1.39,0.02,3.91-0.07,5.19-0.89c0.26-0.16,0.45-0.35,0.57-0.55
		c-0.13,0.03-0.29,0.03-0.49,0.01c-0.31-0.03-0.72-0.12-1.24-0.24c-0.2-0.04-0.42-0.09-0.66-0.14c-2.31-0.49-5.67-0.27-7.46,0.21
		c-0.49,0.13-0.86,0.21-1.14,0.22C28.7,47.54,28.58,47.54,28.48,47.52 M28.38,47.16c0.01,0.01,0.02,0.02,0.03,0.03
		c0.16,0.12,0.65,0.08,1.5-0.15c0.94-0.25,2.26-0.43,3.61-0.48c0.71-0.03,1.41-0.02,2.06,0.02c0.71,0.04,1.36,0.13,1.92,0.25
		c0.24,0.05,0.46,0.1,0.66,0.14c0.96,0.21,1.53,0.34,1.77,0.15c0.02-0.02,0.04-0.03,0.06-0.06C39.99,47.01,40,46.96,40,46.9
		c0.01-0.27,0.02-0.5,0.03-0.7c0.02-0.64,0.03-0.94,0.15-1.14c0.01-0.01,0.02-0.03,0.02-0.04c0.01-0.43,0-0.81-0.1-1.13
		c-0.14-0.46-0.45-0.74-1-0.9c-0.74-0.2-1.58-0.33-2.66-0.4c0.1,0.13,0.15,0.28,0.15,0.44c0,0.12,0.02,0.3,0.05,0.51
		c0.09,0.73,0.23,1.84-0.37,2.57c-0.17,0.2-0.39,0.34-0.63,0.4c-0.23,0.06-0.47,0.05-0.7-0.03c-0.23-0.08-0.43-0.22-0.58-0.41
		c-0.16-0.2-0.25-0.45-0.25-0.72v0c0-0.05-0.05-1.27-0.12-2.84c-0.31,0-0.64,0-0.98,0c-1.61,0.02-2.76,0.1-3.52,0.43
		c-0.76,0.33-1.08,0.89-1.08,1.87c0,0.42-0.02,0.8-0.03,1.13C28.34,46.45,28.32,46.84,28.38,47.16 M34.26,42.52
		c0.07,1.58,0.12,2.8,0.12,2.83v0v0c0.01,0.49,0.34,0.77,0.65,0.88c0.3,0.1,0.72,0.08,1.03-0.28c0.53-0.64,0.4-1.68,0.31-2.36
		c-0.03-0.22-0.05-0.4-0.05-0.54c0-0.13-0.04-0.24-0.14-0.33c-0.06-0.05-0.13-0.1-0.23-0.15C35.43,42.54,34.87,42.53,34.26,42.52
		 M36.01,42.29c0.28,0.01,0.55,0.03,0.81,0.05c0.92,0.08,1.67,0.2,2.36,0.38c0,0,0,0,0,0c0.33,0.1,0.59,0.23,0.79,0.42
		c0.19,0.17,0.32,0.39,0.4,0.66c0.09,0.3,0.12,0.63,0.12,1c0.11-0.04,0.25-0.08,0.42-0.11c0.44-0.1,1.1-0.25,2.19-0.74
		c1.3-0.59,2.75-1.12,4.03-1.59c0.98-0.36,1.84-0.67,2.45-0.94c0.32-0.14,0.55-0.27,0.7-0.38c0.19-0.14,0.19-0.2,0.19-0.21
		c0-0.01-0.03-0.21-1.12-0.59c-0.56-0.2-1.31-0.4-2.22-0.62c-1.29-0.31-2.56-0.68-3.79-1.1c-1.25-0.43-2.4-0.85-3.41-1.22
		c-1.48-0.55-2.76-1.02-3.72-1.27c-0.99-0.26-1.6-0.27-1.91-0.05c-0.21,0.15-0.3,0.42-0.28,0.83c0.05,1.34,0.14,3.43,0.21,5.21
		c0.24,0,0.46,0.01,0.65,0.03C35.37,42.11,35.74,42.18,36.01,42.29"/>
	<path class="st2" d="M20.52,50.89L20.52,50.89 M18.86,49.46c-0.03-0.94,0.06-1.73,0.25-2.28c0.09-0.26,0.2-0.46,0.32-0.6
		c0.1-0.11,0.21-0.19,0.32-0.23c0.03-0.62,0.05-0.72,0.01-1.9c-0.02-0.57,0.1-1.1,0.34-1.58c0.03-0.06,0.07-0.12,0.11-0.18
		c-0.61-0.22-1.12-0.39-1.41-0.49c-0.31-0.1-0.55-0.22-0.72-0.35c-0.19-0.14-0.28-0.3-0.28-0.47c0-0.35,0.43-0.67,1.26-0.94
		c0.09-0.03,9.5-3.03,11.43-3.74c0.07-0.02,0.14,0.01,0.16,0.08c0.02,0.06-0.01,0.14-0.07,0.16c-1.94,0.7-11.35,3.71-11.44,3.74
		c-0.37,0.12-0.66,0.25-0.85,0.38c-0.11,0.08-0.24,0.19-0.24,0.32c0,0.19,0.31,0.4,0.83,0.58c0.3,0.1,0.83,0.29,1.48,0.51
		c0.2-0.27,0.45-0.51,0.74-0.72c1.15-0.83,2.87-1.07,4.18-0.58c0.29,0.11,0.58,0.27,0.85,0.48c0.25,0.19,0.48,0.43,0.68,0.69
		c0.39,0.49,0.65,1.05,0.74,1.54c0.03,0.2,0.03,0.38,0,0.53c-0.04,0.17-0.11,0.31-0.23,0.4c-0.12,0.1-0.26,0.15-0.44,0.15
		c-0.18,0-0.38-0.04-0.61-0.12c-0.48-0.16-1.68-0.59-2.95-1.05c-0.97-0.35-2-0.72-2.87-1.02c-0.27,0.42-0.47,0.97-0.44,1.67
		c0.04,1.17,0.03,1.26,0,1.88c0.07,0.01,0.15,0.04,0.22,0.08c0.11,0.06,0.21,0.16,0.31,0.28c0.19,0.25,0.34,0.62,0.44,1.07
		c0.08,0.39,0.11,0.71,0.07,0.97c-0.03,0.25-0.12,0.43-0.25,0.53c-0.15,0.12-0.35,0.14-0.55,0.05c-0.15-0.07-0.29-0.2-0.4-0.37
		c-0.11-0.18-0.17-0.39-0.18-0.61c-0.01-0.41,0.01-0.75,0.04-1.19c0.01-0.15,0.02-0.32,0.03-0.51c-0.15,0.1-0.29,0.32-0.39,0.63
		c-0.18,0.52-0.26,1.28-0.24,2.19 M20,46.58c-0.01,0.22-0.03,0.41-0.04,0.58c-0.03,0.43-0.05,0.77-0.04,1.17
		c0.01,0.39,0.23,0.66,0.43,0.75c0.08,0.04,0.19,0.06,0.29-0.01c0.08-0.07,0.14-0.19,0.16-0.37c0.03-0.23,0.01-0.53-0.07-0.89
		c-0.09-0.42-0.23-0.75-0.39-0.97C20.26,46.73,20.14,46.61,20,46.58 M20.61,42.56c0.85,0.3,1.86,0.66,2.8,0.99
		c1.27,0.45,2.48,0.88,2.95,1.05c0,0,0,0,0,0c0.37,0.14,0.65,0.14,0.81,0.02c0.14-0.12,0.19-0.37,0.14-0.69
		c-0.15-0.89-1-2.11-2.11-2.52c-1.24-0.46-2.87-0.23-3.95,0.55C21.03,42.11,20.81,42.31,20.61,42.56"/>
	<path class="st0" d="M18.95,48.99c0.32,0,0.57,0.34,0.68,1.31c0.11,0.96,0.39,2.43,0.54,3.28c0.15,0.85,0.17,1.34-0.06,1.34
		c-0.23,0-0.58-0.6-0.75-1.01c-0.17-0.41-0.33-0.15-0.66,0.29c-0.33,0.43-0.88,1.03-0.9,0.51c-0.01-0.52,0.34-1.24,0.46-1.96
		c0.12-0.72,0.19-1.19,0.17-1.92C18.42,50.08,18.44,49.14,18.95,48.99"/>
	<path class="st3" d="M18.92,51.55c-0.01,0.07-0.02,0.15-0.03,0.22c0,0.02-0.01,0.04-0.01,0.05l-0.01,0.05l-0.02,0.11
		c-0.02,0.14-0.05,0.29-0.08,0.43c-0.03,0.14-0.06,0.29-0.1,0.43c-0.04,0.14-0.07,0.28-0.11,0.43l-0.2-0.06
		c0.04-0.13,0.09-0.25,0.14-0.38c0.05-0.13,0.09-0.25,0.15-0.38c0.05-0.12,0.1-0.25,0.16-0.37c0.01-0.03,0.03-0.06,0.04-0.09
		l0.02-0.05c0.01-0.02,0.01-0.03,0.02-0.05c0.03-0.06,0.06-0.12,0.09-0.18c-0.01,0.07-0.02,0.13-0.04,0.2
		c0,0.02-0.01,0.03-0.01,0.05l-0.01,0.05c-0.01,0.03-0.02,0.07-0.02,0.1c-0.03,0.13-0.07,0.26-0.1,0.39
		c-0.04,0.13-0.07,0.26-0.11,0.39c-0.04,0.13-0.08,0.26-0.12,0.38c-0.02,0.05-0.08,0.08-0.13,0.07c-0.05-0.02-0.08-0.07-0.07-0.12
		l0,0c0.04-0.14,0.08-0.28,0.12-0.42c0.04-0.14,0.08-0.28,0.13-0.42c0.05-0.14,0.09-0.28,0.14-0.42l0.04-0.1l0.02-0.05
		c0.01-0.02,0.01-0.03,0.02-0.05C18.86,51.68,18.89,51.61,18.92,51.55"/>
	<path class="st3" d="M19.53,53.14c0.06,0.12,0.11,0.24,0.16,0.37l0.04,0.09l0.04,0.09c0.02,0.06,0.05,0.13,0.07,0.19
		c0.09,0.25,0.18,0.5,0.26,0.76c0.02,0.05-0.01,0.11-0.06,0.13c-0.05,0.01-0.1-0.01-0.12-0.05l0,0c-0.06-0.1-0.11-0.2-0.16-0.3
		c-0.05-0.1-0.11-0.2-0.16-0.3c-0.05-0.1-0.1-0.2-0.15-0.3c-0.05-0.1-0.1-0.2-0.15-0.31l0.15-0.06c0.01,0.08,0.03,0.16,0.04,0.24
		c0.01,0.08,0.02,0.16,0.04,0.24c0.01,0.08,0.02,0.16,0.03,0.24c0.01,0.08,0.02,0.16,0.02,0.24c-0.03-0.08-0.05-0.15-0.08-0.23
		c-0.03-0.08-0.05-0.15-0.07-0.23c-0.02-0.08-0.05-0.15-0.07-0.23c-0.02-0.08-0.04-0.16-0.07-0.23c-0.01-0.04,0.01-0.09,0.06-0.1
		c0.04-0.01,0.07,0.01,0.09,0.04l0,0.01c0.06,0.1,0.12,0.2,0.17,0.29c0.06,0.1,0.11,0.2,0.17,0.3c0.05,0.1,0.11,0.2,0.16,0.3
		c0.05,0.1,0.11,0.2,0.16,0.3l-0.18,0.08c-0.07-0.26-0.14-0.51-0.21-0.77c-0.02-0.06-0.03-0.13-0.05-0.19l-0.02-0.1l-0.02-0.1
		C19.57,53.4,19.55,53.27,19.53,53.14"/>
	<path class="st3" d="M19.05,52.93c0,0.03-0.01,0.06-0.01,0.1c0,0.02-0.01,0.03-0.01,0.05l-0.01,0.05l-0.01,0.05
		c0,0.02-0.01,0.03-0.01,0.05c-0.01,0.03-0.02,0.06-0.02,0.09c-0.03,0.12-0.07,0.25-0.11,0.37c-0.04,0.12-0.09,0.24-0.14,0.36
		c-0.05,0.12-0.11,0.23-0.17,0.34l-0.17-0.1c0.11-0.16,0.23-0.32,0.35-0.47c0.06-0.08,0.12-0.15,0.19-0.23
		c0.06-0.07,0.13-0.15,0.2-0.22c-0.04,0.09-0.08,0.18-0.12,0.27c-0.04,0.09-0.09,0.17-0.14,0.26c-0.1,0.17-0.2,0.34-0.3,0.5
		c-0.03,0.05-0.09,0.06-0.14,0.03c-0.04-0.03-0.06-0.09-0.04-0.13l0,0c0.06-0.11,0.11-0.22,0.17-0.34l0.17-0.34
		c0.06-0.11,0.11-0.22,0.17-0.34c0.01-0.03,0.03-0.06,0.04-0.08c0.01-0.01,0.01-0.03,0.02-0.04l0.02-0.04l0.02-0.04
		c0.01-0.01,0.02-0.03,0.02-0.04C19.02,52.99,19.04,52.96,19.05,52.93"/>
	<path class="st2" d="M19.04,48.91c0.04,0.01,0.09,0.02,0.13,0.04c0.07,0.04,0.13,0.09,0.18,0.17c0.11,0.15,0.2,0.37,0.26,0.64
		c0.05,0.23,0.06,0.42,0.04,0.58c-0.02,0.15-0.07,0.25-0.15,0.32c-0.09,0.07-0.21,0.08-0.33,0.03c-0.09-0.04-0.17-0.12-0.24-0.22
		c-0.07-0.11-0.1-0.23-0.11-0.36c-0.01-0.24,0.01-0.45,0.02-0.71c0.01-0.09,0.01-0.19,0.02-0.3c-0.09,0.06-0.17,0.19-0.23,0.37
		c-0.11,0.31-0.16,0.76-0.14,1.3c0.02,0.61-0.02,1.17-0.12,1.72c-0.08,0.48-0.2,0.87-0.3,1.21c-0.11,0.37-0.2,0.68-0.21,0.98
		c0,0.01,0,0.01,0,0.01c0.04-0.05,0.09-0.15,0.17-0.32c0.1-0.22,0.23-0.51,0.36-0.85c0.26-0.66,0.52-1.4,0.64-1.85
		c0.04-0.15,0.08-0.26,0.12-0.34c0.03-0.06,0.08-0.14,0.17-0.14h0c0.11,0,0.18,0.14,0.26,0.35c0.07,0.19,0.14,0.46,0.23,0.8
		c0.1,0.35,0.2,0.74,0.34,1.19c0.12,0.4,0.19,0.75,0.19,1c0,0.33-0.1,0.43-0.19,0.46c-0.02,0.01-0.04,0.01-0.06,0.01
		c-0.1,0-0.24-0.07-0.43-0.32c-0.18-0.25-0.37-0.62-0.54-1.08c-0.01-0.04,0.01-0.08,0.04-0.09c0.04-0.01,0.08,0.01,0.1,0.04
		c0.2,0.56,0.39,0.88,0.52,1.04c0.15,0.2,0.27,0.28,0.32,0.26c0.04-0.01,0.09-0.11,0.09-0.32c0-0.24-0.07-0.57-0.19-0.96
		c-0.14-0.45-0.25-0.86-0.34-1.19c-0.08-0.3-0.15-0.56-0.22-0.75c-0.03-0.09-0.06-0.17-0.09-0.22c-0.02-0.04-0.04-0.06-0.04-0.07
		c-0.01,0.01-0.03,0.03-0.05,0.08c-0.03,0.06-0.06,0.16-0.1,0.28c-0.13,0.47-0.41,1.27-0.68,1.95c-0.14,0.36-0.27,0.65-0.37,0.86
		c-0.06,0.12-0.11,0.21-0.15,0.27c-0.04,0.07-0.1,0.13-0.17,0.12c-0.03,0-0.07-0.02-0.09-0.1c-0.01-0.03-0.01-0.08-0.01-0.14
		c0.01-0.31,0.11-0.63,0.22-1.01c0.2-0.69,0.45-1.55,0.41-2.89c-0.02-0.56,0.04-1.03,0.15-1.35c0.05-0.15,0.12-0.27,0.19-0.36
		c0.06-0.07,0.12-0.11,0.19-0.14 M19.03,49.06c-0.01,0.13-0.02,0.24-0.02,0.35c-0.02,0.26-0.03,0.46-0.02,0.69
		c0.01,0.23,0.14,0.39,0.26,0.45c0.05,0.02,0.12,0.04,0.17-0.01c0.05-0.04,0.08-0.11,0.1-0.22c0.02-0.14,0-0.31-0.04-0.53
		c-0.05-0.25-0.13-0.45-0.23-0.58C19.19,49.15,19.12,49.08,19.03,49.06"/>
</g>
<g>
	<g>
		<g>
			<path class="st4" d="M40.77,46.74c-0.71-0.13-1.43-0.19-2.17-0.19c-7.62,0-13.8,7.07-13.8,15.79c0,2.05,0.34,4.01,0.96,5.81
				c-1.27-2.19-2-4.78-2-7.55c0-7.94,6-14.37,13.41-14.37C38.43,46.22,39.63,46.4,40.77,46.74"/>
		</g>
		<g>
			<path class="st4" d="M26.77,50.1c0,0,13.88,1.42,18.55,0.38c0,0-12.28,2.51-20.02,0L26.77,50.1z"/>
		</g>
		<g>
			<path class="st4" d="M22.06,54.72c0,0,6.44,1.75,9.7,1.45v1.45c0,0-7.96-0.3-11.07-1.65L22.06,54.72z"/>
		</g>
		<g>
			<path class="st4" d="M19.09,62.14c0,0,7.87,2.36,11.21,2.36c0,0-8.05,0.35-11.21-0.4V62.14z"/>
		</g>
		<g>
			<path class="st4" d="M36.36,45.68c0,0-2.55,0.85-4.94,7.14h1.2c0,0,3.05-6.22,4.24-6.6L36.36,45.68z"/>
		</g>
		<g>
			<path class="st4" d="M36.57,46.72c0,0,0.94,3.26,0.79,5.46c0,0,0.87-4.21,0.66-5.93L36.57,46.72z"/>
		</g>
		<g>
			<path class="st4" d="M36.85,78.68c0.81,0,1.62-0.06,2.4-0.17c-1.35,0.35-2.77,0.53-4.23,0.53c-9.34,0-16.91-7.57-16.91-16.91
				c0-9.34,7.57-16.91,16.91-16.91c5.64,0,10.64,2.76,13.71,7.01c-3-2.94-7.21-4.77-11.87-4.77c-9.11,0-16.5,6.99-16.5,15.61
				S27.74,78.68,36.85,78.68"/>
		</g>
	</g>
</g>
<path d="M50.41,75.04c0,0.53,0.02,0.81,0.07,0.85c0.07,0.05,0.16,0.09,0.26,0.1c0.1,0.01,0.29,0.02,0.57,0.02h0.67
	c0.25,0,0.5-0.03,0.76-0.08c0.26-0.05,0.47-0.13,0.62-0.24c0.32-0.22,0.57-0.62,0.74-1.19c0.01-0.05,0.07-0.07,0.16-0.07
	c0.15,0,0.25,0.02,0.29,0.07c-0.04,0.1-0.09,0.27-0.18,0.49c-0.08,0.22-0.15,0.4-0.2,0.54c-0.05,0.14-0.1,0.3-0.15,0.47
	c-0.05,0.18-0.09,0.33-0.11,0.45c-0.4,0-1.04-0.01-1.9-0.02c-0.86-0.02-1.57-0.02-2.11-0.02c-0.19,0-0.44,0.01-0.74,0.02
	c-0.3,0.01-0.52,0.02-0.66,0.02c-0.03-0.03-0.04-0.09-0.04-0.17c0-0.08,0.01-0.14,0.04-0.17c0.12,0,0.28-0.02,0.48-0.05
	c0.2-0.04,0.31-0.08,0.33-0.14c0.04-0.13,0.06-0.42,0.06-0.87v-5.02c0-0.46-0.02-0.75-0.06-0.87c-0.02-0.06-0.13-0.1-0.33-0.14
	c-0.2-0.04-0.36-0.05-0.48-0.05c-0.02-0.03-0.04-0.09-0.04-0.17c0-0.08,0.01-0.14,0.04-0.17c0.8,0.04,1.27,0.06,1.39,0.06
	c0.11,0,0.57-0.02,1.38-0.06c0.03,0.03,0.04,0.09,0.04,0.17c0,0.08-0.01,0.14-0.04,0.17c-0.12,0-0.28,0.02-0.48,0.05
	s-0.31,0.08-0.33,0.14c-0.05,0.15-0.07,0.44-0.06,0.87V75.04z"/>
<path d="M58.13,68.67c0.63,0,1.21,0.1,1.73,0.29c0.52,0.19,0.96,0.46,1.31,0.8c0.35,0.34,0.62,0.74,0.81,1.21
	c0.19,0.47,0.29,0.97,0.29,1.51c0,0.42-0.04,0.81-0.12,1.18c-0.08,0.37-0.23,0.73-0.43,1.07c-0.21,0.35-0.47,0.64-0.78,0.89
	c-0.32,0.25-0.72,0.45-1.23,0.59c-0.5,0.15-1.07,0.22-1.72,0.22h-2.94C55.01,76.41,55,76.35,55,76.27c0-0.08,0.01-0.14,0.04-0.17
	c0.12,0,0.28-0.02,0.48-0.05c0.2-0.03,0.31-0.08,0.33-0.14c0.04-0.13,0.06-0.42,0.06-0.87v-5.02c0-0.45-0.02-0.75-0.06-0.87
	c-0.02-0.05-0.13-0.1-0.33-0.13c-0.2-0.04-0.36-0.05-0.48-0.05C55.01,68.93,55,68.87,55,68.79c0-0.08,0.01-0.14,0.04-0.17
	c0.8,0.04,1.27,0.06,1.39,0.06c0.15,0,0.43,0,0.83-0.01C57.66,68.67,57.95,68.67,58.13,68.67 M56.94,70.04v5.01
	c0,0.51,0.02,0.79,0.07,0.85c0.08,0.11,0.4,0.16,0.96,0.16c0.43,0,0.82-0.07,1.19-0.2c0.37-0.13,0.7-0.34,0.99-0.6
	c0.29-0.27,0.52-0.62,0.69-1.05c0.17-0.43,0.25-0.93,0.25-1.49c0-0.52-0.06-0.98-0.18-1.4c-0.12-0.42-0.28-0.77-0.49-1.04
	c-0.2-0.28-0.45-0.51-0.73-0.7c-0.28-0.19-0.58-0.32-0.89-0.41c-0.31-0.08-0.65-0.13-0.99-0.13c-0.51,0-0.78,0.04-0.81,0.13
	C56.95,69.32,56.93,69.61,56.94,70.04"/>
<path d="M73,68.65c0.27,0,0.55,0.04,0.83,0.13c0.28,0.09,0.53,0.22,0.77,0.38c0.24,0.17,0.43,0.38,0.58,0.64
	c0.15,0.27,0.22,0.56,0.22,0.88c0,0.4-0.16,0.79-0.49,1.17c-0.33,0.37-0.7,0.63-1.12,0.77c0.51,0.84,1.14,1.76,1.9,2.77
	c0.18,0.23,0.36,0.4,0.56,0.51c0.2,0.11,0.45,0.17,0.77,0.2c0.02,0.04,0.03,0.11,0.02,0.19c-0.01,0.08-0.02,0.13-0.03,0.16
	c-0.76,0-1.28-0.05-1.55-0.14c-0.25-0.09-0.44-0.2-0.58-0.32c-0.07-0.06-0.13-0.13-0.19-0.2c-0.1-0.14-0.35-0.5-0.76-1.1
	c-0.4-0.6-0.77-1.16-1.12-1.69c-0.06-0.09-0.18-0.14-0.35-0.14h-0.62v2.19c0,0.45,0.02,0.75,0.06,0.87c0.02,0.05,0.13,0.1,0.33,0.14
	c0.2,0.04,0.36,0.05,0.48,0.05c0.02,0.03,0.04,0.09,0.04,0.17c0,0.08-0.01,0.14-0.04,0.17c-0.8-0.04-1.26-0.06-1.38-0.06
	c-0.12,0-0.58,0.02-1.39,0.06c-0.03-0.03-0.04-0.09-0.04-0.17c0-0.08,0.02-0.14,0.04-0.17c0.12,0,0.28-0.02,0.48-0.05
	c0.2-0.03,0.31-0.08,0.33-0.14c0.03-0.1,0.05-0.39,0.06-0.87l-0.01-5.02c0-0.45-0.02-0.75-0.06-0.87c-0.02-0.05-0.13-0.1-0.33-0.13
	c-0.2-0.04-0.36-0.05-0.48-0.05c-0.02-0.03-0.04-0.09-0.04-0.17c0-0.08,0.01-0.14,0.04-0.17c0.8,0.04,1.27,0.06,1.39,0.06
	c0.13,0,0.38,0,0.75-0.01C72.44,68.66,72.75,68.65,73,68.65 M74.3,70.8c0-0.55-0.15-0.98-0.44-1.29c-0.29-0.32-0.75-0.47-1.37-0.47
	c-0.36,0-0.55,0.04-0.59,0.12c-0.04,0.09-0.06,0.39-0.06,0.88l0.01,2.46h0.63c0.48,0,0.91-0.16,1.27-0.47
	C74.11,71.7,74.3,71.29,74.3,70.8"/>
<polygon class="st4" points="63.05,68.62 69.11,68.62 69.11,76.28 65.36,76.28 63.05,77.92 63.05,75.26 67.2,75.26 67.2,74.29 
	64.34,74.29 64.34,72.96 66.88,72.96 66.88,71.9 64.19,71.9 64.19,70.73 67.12,70.73 67.12,69.75 63.05,69.75 "/>
<path d="M65.01,62.73c0,0.53,0.02,0.81,0.07,0.85c0.07,0.05,0.16,0.09,0.26,0.1c0.1,0.01,0.3,0.02,0.57,0.02h0.67
	c0.25,0,0.5-0.03,0.76-0.08c0.26-0.05,0.46-0.13,0.62-0.24c0.32-0.22,0.57-0.62,0.74-1.19c0.01-0.05,0.07-0.07,0.16-0.07
	c0.15,0,0.25,0.02,0.29,0.07c-0.04,0.1-0.09,0.26-0.18,0.49c-0.08,0.22-0.15,0.4-0.2,0.54c-0.05,0.14-0.1,0.3-0.15,0.47
	c-0.05,0.18-0.09,0.33-0.11,0.45c-0.4,0-1.04-0.01-1.9-0.02c-0.86-0.02-1.57-0.02-2.11-0.02c-0.19,0-0.44,0.01-0.74,0.02
	c-0.3,0.01-0.52,0.02-0.66,0.02c-0.03-0.03-0.04-0.09-0.04-0.17c0-0.08,0.02-0.14,0.04-0.17c0.12,0,0.28-0.02,0.48-0.05
	s0.31-0.08,0.33-0.14c0.04-0.13,0.06-0.42,0.06-0.87v-5.02c0-0.46-0.02-0.75-0.06-0.87c-0.02-0.06-0.13-0.1-0.33-0.14
	s-0.36-0.05-0.48-0.05c-0.02-0.03-0.04-0.09-0.04-0.17c0-0.08,0.01-0.14,0.04-0.17c0.8,0.04,1.27,0.06,1.39,0.06
	c0.11,0,0.57-0.02,1.38-0.06c0.03,0.03,0.04,0.09,0.04,0.17c0,0.08-0.01,0.14-0.04,0.17c-0.12,0-0.28,0.02-0.48,0.05
	c-0.2,0.04-0.31,0.08-0.33,0.14c-0.05,0.15-0.07,0.44-0.06,0.87V62.73z"/>
<path d="M70.01,62.46c1.04-2.66,1.79-4.6,2.27-5.82c0.03-0.06,0.1-0.13,0.21-0.21c0.11-0.08,0.19-0.13,0.24-0.13
	c0.01,0,0.02,0,0.04,0.01c0.01,0.01,0.02,0.02,0.03,0.02l2.39,6.28c0.2,0.51,0.3,0.76,0.3,0.78c0.05,0.12,0.17,0.22,0.37,0.29
	c0.19,0.07,0.34,0.11,0.43,0.11c0.02,0.04,0.04,0.09,0.04,0.17c0,0.08,0,0.14-0.01,0.17c-0.78-0.04-1.22-0.06-1.29-0.06
	c-0.16,0-0.31,0-0.45,0.01c-0.14,0.01-0.3,0.01-0.47,0.03c-0.17,0.01-0.32,0.02-0.45,0.02c-0.03-0.03-0.04-0.09-0.04-0.17
	c0-0.08,0.02-0.14,0.05-0.17c0.09,0,0.21-0.01,0.36-0.04c0.15-0.03,0.25-0.07,0.3-0.11c0.03-0.03,0.05-0.09,0.05-0.17
	c0-0.11-0.07-0.35-0.2-0.73c-0.13-0.38-0.27-0.74-0.4-1.07l-0.2-0.49c-0.02-0.03-0.05-0.05-0.07-0.05c-0.1-0.01-0.49-0.01-1.17-0.01
	c-0.49,0-0.92,0.01-1.27,0.04l-0.06,0.03c-0.22,0.58-0.4,1.06-0.53,1.44c-0.11,0.32-0.17,0.6-0.17,0.84c0,0.07,0.04,0.12,0.11,0.17
	s0.16,0.08,0.27,0.1c0.1,0.02,0.19,0.04,0.27,0.04c0.07,0.01,0.13,0.01,0.17,0.01c0.02,0.02,0.03,0.07,0.03,0.16
	c0.01,0.09,0,0.15-0.01,0.19c-0.11,0-0.24-0.01-0.37-0.02c-0.13-0.01-0.26-0.02-0.37-0.03c-0.11-0.01-0.25-0.01-0.4-0.01
	c-0.16,0-0.3,0-0.43,0.01c-0.12,0.01-0.26,0.01-0.41,0.03c-0.15,0.01-0.29,0.02-0.42,0.02c-0.02-0.02-0.02-0.07-0.02-0.15
	s0.01-0.15,0.02-0.19c0.1,0,0.23-0.02,0.39-0.06c0.16-0.04,0.27-0.09,0.32-0.16C69.62,63.35,69.81,62.98,70.01,62.46"/>
<path class="st5" d="M57.22,58.25c-0.06,0.47-0.12,0.92-0.19,1.39c-0.43-0.04-0.84-0.13-1.25-0.26c-0.03-0.01-0.07-0.09-0.07-0.12
	c0.09-0.44,0.26-0.84,0.51-1.21c0.02-0.02,0.06-0.05,0.09-0.04C56.62,58.09,56.92,58.17,57.22,58.25"/>
<path class="st5" d="M60.99,58.23c0.27-0.08,0.55-0.17,0.83-0.25c0.03-0.01,0.09,0.02,0.11,0.05c0.27,0.37,0.44,0.79,0.54,1.24
	c0.02,0.07-0.01,0.1-0.07,0.12c-0.41,0.09-0.81,0.19-1.22,0.29C61.11,59.17,61.05,58.7,60.99,58.23"/>
<path d="M58.71,60.27c-0.56,0-1.49-0.03-2.4-0.22c-0.36-0.07-0.7-0.2-1.05-0.31c-0.1-0.03-0.13-0.09-0.12-0.2
	c0.12-0.96,0.52-1.78,1.22-2.45c0.59-0.56,1.29-0.91,2.09-1.03c1.1-0.17,2.11,0.07,3,0.74c0.91,0.68,1.44,1.6,1.58,2.73
	c0.01,0.11-0.02,0.16-0.11,0.2c-0.43,0.21-0.9,0.3-1.37,0.38C60.74,60.24,59.91,60.27,58.71,60.27 M57.22,58.25
	c-0.3-0.08-0.6-0.16-0.91-0.24c-0.03-0.01-0.07,0.02-0.09,0.04c-0.25,0.37-0.43,0.77-0.51,1.21c-0.01,0.04,0.03,0.11,0.07,0.12
	c0.41,0.13,0.83,0.21,1.25,0.26C57.09,59.18,57.16,58.72,57.22,58.25 M60.99,58.23c0.06,0.47,0.12,0.94,0.19,1.44
	c0.41-0.1,0.82-0.19,1.22-0.29c0.07-0.02,0.09-0.05,0.07-0.12c-0.1-0.45-0.27-0.87-0.54-1.24c-0.02-0.03-0.08-0.06-0.11-0.05
	C61.54,58.06,61.26,58.15,60.99,58.23 M59.35,59.08c0,0.19,0,0.37,0,0.56c0,0.08,0.03,0.11,0.1,0.11c0.36-0.01,0.72-0.03,1.08-0.04
	c0.07,0,0.11-0.04,0.1-0.11c-0.05-0.39-0.1-0.79-0.15-1.18c0-0.03-0.06-0.08-0.09-0.08c-0.31,0.02-0.63,0.06-0.94,0.08
	c-0.08,0.01-0.11,0.05-0.1,0.12C59.36,58.72,59.35,58.9,59.35,59.08 M58.85,59.1c0-0.17-0.01-0.35,0-0.52
	c0.01-0.13-0.05-0.16-0.16-0.16c-0.28-0.02-0.55-0.04-0.83-0.07c-0.09-0.01-0.14,0.02-0.15,0.11c-0.05,0.38-0.1,0.75-0.15,1.13
	c-0.01,0.08,0.02,0.12,0.1,0.12c0.35,0.01,0.7,0.03,1.05,0.04c0.1,0,0.13-0.04,0.12-0.13C58.84,59.45,58.85,59.27,58.85,59.1
	 M59.35,56.78v0.84c0,0.29,0,0.29,0.29,0.28c0.21-0.01,0.42-0.04,0.63-0.06C60.17,57.41,59.67,56.84,59.35,56.78 M57.94,57.84
	c0.18,0.02,0.34,0.04,0.51,0.06c0.1,0.01,0.19,0,0.29,0.01c0.09,0.01,0.12-0.04,0.11-0.12c0-0.18,0-0.37,0-0.55v-0.47
	C58.49,56.9,58.03,57.44,57.94,57.84 M58.01,56.72c-0.53,0.16-0.99,0.44-1.4,0.86c0.25,0.06,0.48,0.11,0.71,0.16
	c0.03,0.01,0.1-0.03,0.11-0.06C57.58,57.33,57.76,57.01,58.01,56.72 M61.51,57.54c-0.23-0.31-0.94-0.74-1.33-0.82
	c0.27,0.29,0.46,0.61,0.6,0.96c0.01,0.02,0.06,0.05,0.08,0.04C61.08,57.67,61.29,57.61,61.51,57.54"/>
<path class="st5" d="M59.35,59.08c0-0.18,0-0.36,0-0.53c0-0.08,0.02-0.12,0.1-0.12c0.31-0.03,0.63-0.06,0.94-0.09
	c0.03,0,0.08,0.05,0.09,0.08c0.06,0.39,0.1,0.79,0.15,1.18c0.01,0.07-0.03,0.11-0.1,0.11c-0.36,0.01-0.72,0.03-1.08,0.04
	c-0.08,0-0.1-0.03-0.1-0.11C59.36,59.45,59.35,59.27,59.35,59.08"/>
<path class="st5" d="M58.85,59.1c0,0.17,0,0.35,0,0.52c0,0.09-0.02,0.14-0.12,0.13c-0.35-0.02-0.7-0.03-1.05-0.04
	c-0.08,0-0.11-0.04-0.1-0.12c0.05-0.38,0.1-0.75,0.15-1.13c0.01-0.09,0.05-0.12,0.15-0.11c0.28,0.03,0.55,0.05,0.83,0.07
	c0.11,0.01,0.16,0.04,0.16,0.16C58.84,58.75,58.85,58.92,58.85,59.1"/>
<path d="M55.12,60.16c0,0,3.69,1.28,7.93,0.01c0,0,0.01,3.91-3.97,3.96C59.09,64.13,55.49,64.24,55.12,60.16"/>
<path class="st5" d="M59.06,63.63c-0.3,0-2.72-0.08-3.33-2.79c0.73,0.17,1.93,0.39,3.41,0.39c1.15,0,2.27-0.13,3.35-0.39
	c-0.19,1-0.89,2.76-3.4,2.8L59.06,63.63z"/>
<path d="M21.21,72.01c0,0-0.12,0.16-0.35,0.46c-0.22,0.3-0.55,0.75-0.9,1.35c-0.17,0.3-0.36,0.64-0.49,1.02
	c-0.13,0.37-0.22,0.85,0.07,1.06c0.05,0.06,0.08,0.05,0.12,0.07c0.03,0.01,0.06,0.03,0.12,0.04c0.1,0.03,0.21,0.04,0.32,0.04
	c0.23,0.01,0.48-0.03,0.74-0.08c0.51-0.1,1.05-0.28,1.6-0.48c1.11-0.41,2.27-0.98,3.48-1.62c1.21-0.64,2.46-1.37,3.73-2.15
	c2.55-1.57,5.19-3.37,7.77-5.24c1.3-0.91,2.6-1.82,3.89-2.72c0.63-0.47,1.26-0.93,1.88-1.39c0.6-0.47,1.19-0.94,1.77-1.4
	c1.15-0.95,2.27-1.87,3.31-2.77c1.04-0.89,2.02-1.75,2.92-2.55c1.8-1.59,3.27-2.95,4.3-3.9c1.03-0.96,1.61-1.5,1.61-1.5l0.58,0.59
	c0,0-0.59,0.55-1.61,1.51c-1.03,0.96-2.5,2.32-4.29,3.93c-0.89,0.81-1.87,1.67-2.92,2.57c-1.04,0.91-2.16,1.84-3.32,2.8
	c-0.59,0.47-1.19,0.95-1.79,1.43c-0.62,0.46-1.25,0.93-1.88,1.4c-1.28,0.93-2.59,1.86-3.9,2.78c-2.65,1.81-5.36,3.53-7.97,5.03
	c-1.31,0.75-2.59,1.44-3.83,2.05c-1.24,0.61-2.43,1.14-3.58,1.53c-0.57,0.19-1.13,0.36-1.68,0.44c-0.27,0.04-0.54,0.07-0.81,0.05
	c-0.26-0.01-0.54-0.09-0.74-0.26c-0.21-0.17-0.26-0.46-0.24-0.68c0.02-0.24,0.08-0.46,0.16-0.65c0.16-0.4,0.36-0.74,0.54-1.04
	c0.38-0.6,0.72-1.03,0.96-1.32c0.24-0.29,0.37-0.45,0.37-0.45L21.21,72.01z"/>
<path class="st5" d="M54.98,64.34l-0.1,0c-0.8-0.04-1.26-0.06-1.37-0.06c-0.12,0-0.58,0.02-1.38,0.06l-0.1,0l-0.07-0.08
	c-0.06-0.07-0.09-0.18-0.09-0.33c0-0.14,0.03-0.24,0.08-0.31l0.06-0.08h0.1c0.11,0,0.26-0.02,0.45-0.05
	c0.1-0.02,0.15-0.03,0.18-0.04c0.02-0.1,0.04-0.31,0.04-0.76v-2.18c-0.14,0-0.35-0.01-0.62-0.02c-0.43-0.01-0.77-0.02-1-0.02
	c-1.05,0-1.48,0.02-1.66,0.04v2.18c0,0.46,0.02,0.67,0.04,0.76c0.03,0.01,0.08,0.03,0.18,0.04c0.19,0.03,0.34,0.05,0.45,0.05h0.1
	l0.06,0.08c0.05,0.07,0.08,0.16,0.08,0.31c0,0.09-0.01,0.23-0.09,0.33l-0.07,0.08l-0.1,0c-0.8-0.04-1.26-0.06-1.37-0.06
	c-0.12,0-0.58,0.02-1.38,0.06l-0.1,0l-0.07-0.08c-0.08-0.1-0.09-0.23-0.09-0.33c0-0.14,0.03-0.24,0.08-0.31l0.06-0.08h0.1
	c0.11,0,0.26-0.02,0.45-0.05c0.09-0.02,0.15-0.03,0.18-0.04c0.02-0.1,0.04-0.31,0.04-0.76v-4.95c0-0.46-0.02-0.67-0.04-0.76
	c-0.03-0.01-0.08-0.03-0.18-0.04c-0.19-0.03-0.34-0.05-0.45-0.05h-0.1l-0.06-0.08c-0.05-0.07-0.08-0.16-0.08-0.31
	c0-0.09,0.01-0.23,0.09-0.33l0.07-0.08l0.1,0c0.81,0.04,1.26,0.06,1.38,0.06c0.11,0,0.55-0.02,1.37-0.06l0.1,0l0.07,0.08
	c0.08,0.1,0.09,0.23,0.09,0.33c0,0.14-0.03,0.24-0.08,0.31l-0.06,0.08h-0.1c-0.1,0-0.25,0.02-0.45,0.05
	c-0.1,0.02-0.15,0.03-0.18,0.04c-0.02,0.1-0.04,0.31-0.04,0.76v1.89c1.03,0.02,1.59,0.03,1.66,0.03c0.13,0,0.67-0.01,1.62-0.03
	v-1.89c0-0.46-0.02-0.67-0.04-0.76c-0.03-0.01-0.08-0.03-0.18-0.04c-0.19-0.03-0.34-0.05-0.45-0.05h-0.1l-0.06-0.08
	c-0.05-0.07-0.08-0.16-0.08-0.31c0-0.15,0.02-0.25,0.09-0.33l0.07-0.08l0.1,0c0.81,0.04,1.26,0.06,1.38,0.06
	c0.11,0,0.55-0.02,1.37-0.06l0.1,0l0.07,0.08c0.06,0.07,0.09,0.18,0.09,0.33c0,0.14-0.03,0.24-0.08,0.31l-0.06,0.08h-0.1
	c-0.1,0-0.25,0.02-0.45,0.05c-0.09,0.02-0.15,0.03-0.18,0.04c-0.02,0.1-0.04,0.31-0.04,0.76v4.95c0,0.46,0.02,0.67,0.04,0.76
	c0.03,0.01,0.08,0.03,0.18,0.04c0.19,0.03,0.34,0.05,0.45,0.05h0.11l0.06,0.08c0.05,0.07,0.07,0.16,0.08,0.31
	c0,0.15-0.02,0.25-0.09,0.33L54.98,64.34z M47.96,56.54c0.21,0.04,0.4,0.1,0.45,0.27c0.03,0.09,0.07,0.29,0.07,0.93v4.95
	c0,0.64-0.04,0.84-0.07,0.93c-0.05,0.17-0.24,0.23-0.45,0.27c0.46-0.02,0.74-0.03,0.83-0.03c0.09,0,0.35,0.01,0.82,0.03
	c-0.21-0.04-0.4-0.11-0.45-0.28c-0.03-0.09-0.07-0.29-0.07-0.93v-2.33v-0.05l0.02-0.04l0.03-0.06l0.07-0.05
	c0.06-0.03,0.16-0.08,1.33-0.09c-0.3-0.01-0.71-0.01-1.23-0.02l-0.11,0l-0.06-0.09l-0.02-0.04l-0.03-0.05V59.8v-2.06
	c0-0.64,0.04-0.84,0.07-0.93c0.05-0.17,0.24-0.23,0.45-0.27c-0.47,0.02-0.73,0.03-0.81,0.03C48.7,56.57,48.43,56.56,47.96,56.54
	 M51.64,60.07c0.16,0,0.34,0.01,0.54,0.01c0.44,0.01,0.7,0.02,0.8,0.03l0.12,0.01l0.05,0.11l0.02,0.05l0.02,0.04v0.05v2.33
	c0,0.64-0.04,0.84-0.07,0.93c-0.05,0.17-0.24,0.23-0.45,0.27c0.47-0.02,0.73-0.03,0.83-0.03c0.09,0,0.35,0.01,0.82,0.03
	c-0.21-0.04-0.4-0.11-0.45-0.28c-0.03-0.09-0.07-0.29-0.07-0.93v-4.95c0-0.64,0.04-0.84,0.07-0.93c0.05-0.17,0.24-0.23,0.45-0.27
	c-0.47,0.02-0.73,0.03-0.81,0.03c-0.09,0-0.36-0.01-0.83-0.03c0.21,0.04,0.4,0.1,0.45,0.27c0.03,0.09,0.07,0.29,0.07,0.93v2.05
	c0,0.05-0.01,0.12-0.08,0.19l-0.06,0.06l-0.08,0C52.39,60.05,51.94,60.06,51.64,60.07"/>
<path d="M48.79,56.36c0.11,0,0.57-0.02,1.38-0.06c0.03,0.03,0.04,0.09,0.04,0.19c0,0.09-0.01,0.16-0.04,0.19
	c-0.12,0-0.28,0.02-0.48,0.05c-0.2,0.03-0.31,0.08-0.33,0.14c-0.04,0.13-0.06,0.42-0.06,0.87v2.06l0.02,0.04
	c1.15,0.02,1.77,0.03,1.85,0.03c0.14,0,0.74-0.01,1.8-0.03c0.02-0.02,0.02-0.03,0.02-0.05v-2.05c0-0.46-0.02-0.75-0.06-0.87
	c-0.02-0.06-0.13-0.1-0.33-0.14c-0.2-0.04-0.36-0.05-0.48-0.05c-0.02-0.03-0.04-0.09-0.04-0.19c0-0.09,0.01-0.16,0.04-0.19
	c0.8,0.04,1.27,0.06,1.39,0.06c0.11,0,0.57-0.02,1.38-0.06c0.03,0.03,0.04,0.09,0.04,0.19c0,0.09-0.01,0.16-0.04,0.19
	c-0.12,0-0.28,0.02-0.48,0.05c-0.2,0.03-0.31,0.08-0.33,0.14c-0.04,0.13-0.06,0.42-0.06,0.87v4.95c0,0.46,0.02,0.75,0.06,0.87
	c0.02,0.06,0.13,0.1,0.33,0.14c0.2,0.04,0.36,0.05,0.48,0.05c0.02,0.03,0.04,0.09,0.04,0.19c0,0.09-0.01,0.16-0.04,0.19
	c-0.8-0.04-1.26-0.06-1.38-0.06c-0.12,0-0.58,0.02-1.39,0.06c-0.03-0.03-0.04-0.09-0.04-0.19c0-0.09,0.02-0.16,0.04-0.19
	c0.12,0,0.28-0.02,0.48-0.05c0.2-0.04,0.31-0.08,0.33-0.14c0.04-0.13,0.06-0.42,0.06-0.87v-2.33l-0.02-0.05
	c-0.09,0-0.36-0.01-0.8-0.03c-0.44-0.01-0.77-0.02-1-0.02c-1.15,0-1.77,0.02-1.86,0.07l-0.01,0.02v2.33c0,0.46,0.02,0.75,0.06,0.87
	c0.02,0.06,0.13,0.1,0.33,0.14c0.2,0.04,0.36,0.05,0.48,0.05c0.02,0.03,0.04,0.09,0.04,0.19c0,0.09-0.01,0.16-0.04,0.19
	c-0.8-0.04-1.26-0.06-1.38-0.06c-0.12,0-0.58,0.02-1.39,0.06c-0.03-0.03-0.04-0.09-0.04-0.19c0-0.09,0.02-0.16,0.04-0.19
	c0.12,0,0.28-0.02,0.48-0.05c0.2-0.04,0.31-0.08,0.33-0.14c0.04-0.13,0.06-0.42,0.06-0.87v-4.95c0-0.46-0.02-0.75-0.06-0.87
	c-0.02-0.06-0.13-0.1-0.33-0.14c-0.2-0.04-0.36-0.05-0.48-0.05c-0.02-0.03-0.04-0.09-0.04-0.19c0-0.09,0.01-0.16,0.04-0.19
	C48.2,56.34,48.67,56.36,48.79,56.36"/>
<path d="M55.65,51.91c-0.07,0-0.13-0.01-0.19-0.03l-0.39-0.16c-0.2-0.08-0.3-0.31-0.22-0.51l0.1-0.19c0.07-0.13,0.18-0.2,0.32-0.22
	l0.03,0l0.04,0c0.02,0,0.06,0,0.1-0.01c0.24-0.02,0.6-0.1,0.66-0.11l0.01,0l0.87-0.9l-0.49-0.31c-0.15-0.06-0.24-0.29-0.18-0.48
	l0.08-0.18c0.05-0.14,0.2-0.26,0.36-0.27l0.04,0l1.33,0.19c0.48-0.51,1.15-1.21,1.18-1.25c0.02-0.02,0.31-0.31,0.82-0.35
	c0.16-0.02,0.33-0.01,0.5,0.03c0.09,0.02,0.2,0.04,0.29,0.13c0.12,0.11,0.16,0.26,0.11,0.43c-0.1,0.33-0.6,0.83-0.7,0.93l-0.05,0.05
	c-0.19,0.19-0.74,0.72-2.45,2.35c-0.06,0.06-0.16,0.12-0.24,0.15l-1.74,0.67c-0.04,0.02-0.08,0.03-0.13,0.03
	C55.69,51.91,55.67,51.91,55.65,51.91"/>
<path d="M55.29,51.03c-0.07,0.01-0.12,0.04-0.15,0.1l-0.09,0.17c-0.03,0.08,0.02,0.17,0.1,0.21l0.39,0.16
	c0.04,0.02,0.1,0.02,0.15,0.02c0.03,0,0.05-0.01,0.07-0.02L57.5,51c0.05-0.02,0.13-0.07,0.17-0.11c1.94-1.84,2.38-2.27,2.5-2.4
	l0.07-0.08l0.01,0c0.21-0.21,0.51-0.56,0.57-0.77c0.02-0.06,0.03-0.13-0.04-0.21c-0.05-0.05-0.11-0.06-0.19-0.07
	c-0.16-0.03-0.3-0.04-0.44-0.03c-0.43,0.04-0.68,0.28-0.68,0.29c-0.04,0.04-0.75,0.8-1.22,1.29l-0.04,0.04l-1.41-0.21l-0.01,0
	c-0.08,0.01-0.16,0.07-0.18,0.13l-0.08,0.18c-0.03,0.08,0.02,0.18,0.07,0.2l0.74,0.46l-1.12,1.16l-0.07,0
	c-0.07,0.01-0.44,0.09-0.69,0.11c-0.05,0.01-0.1,0.01-0.12,0.01L55.29,51.03z"/>
<g>
	<path d="M43.8,68.56c0.51,0,1,0.1,1.47,0.3c0.47,0.2,0.87,0.47,1.22,0.81c0.35,0.35,0.63,0.77,0.83,1.27
		c0.21,0.5,0.31,1.04,0.31,1.61c0,0.54-0.1,1.05-0.31,1.54c-0.21,0.49-0.48,0.92-0.83,1.27c-0.35,0.36-0.76,0.64-1.23,0.85
		c-0.47,0.21-0.96,0.31-1.47,0.31c-0.51,0-1-0.1-1.47-0.3c-0.46-0.2-0.87-0.47-1.21-0.82c-0.35-0.34-0.62-0.77-0.82-1.26
		c-0.2-0.5-0.31-1.03-0.31-1.6c0-0.54,0.1-1.06,0.31-1.55c0.2-0.49,0.48-0.92,0.82-1.27c0.34-0.35,0.75-0.64,1.22-0.85
		C42.8,68.67,43.29,68.56,43.8,68.56 M43.62,68.96c-0.34,0-0.65,0.07-0.93,0.2c-0.28,0.13-0.51,0.31-0.7,0.52
		c-0.19,0.22-0.34,0.47-0.47,0.76c-0.13,0.29-0.22,0.59-0.28,0.9c-0.06,0.31-0.08,0.63-0.08,0.95c0,0.46,0.06,0.92,0.19,1.37
		c0.13,0.45,0.31,0.86,0.54,1.23c0.23,0.37,0.53,0.67,0.9,0.89c0.37,0.23,0.77,0.34,1.21,0.34c0.34,0,0.65-0.07,0.94-0.2
		c0.28-0.13,0.52-0.31,0.7-0.52c0.19-0.22,0.34-0.47,0.48-0.76c0.13-0.29,0.23-0.6,0.28-0.91c0.06-0.31,0.09-0.63,0.09-0.96
		c0-0.46-0.07-0.92-0.19-1.37c-0.13-0.45-0.31-0.86-0.54-1.22c-0.23-0.36-0.53-0.66-0.9-0.89C44.46,69.07,44.06,68.96,43.62,68.96"
		/>
	<path d="M36.21,52.9c0.25,0,0.48,0.01,0.69,0.04c0.22,0.03,0.39,0.06,0.53,0.1c0.14,0.04,0.34,0.09,0.6,0.16
		c0.26,0.07,0.5,0.13,0.71,0.17c0.07,0.49,0.15,1.28,0.24,2.39c0.01,0.05-0.03,0.09-0.12,0.13s-0.16,0.05-0.24,0.05
		c-0.08,0-0.14-0.02-0.18-0.07c-0.02-0.17-0.07-0.36-0.14-0.57c-0.07-0.21-0.18-0.42-0.32-0.64c-0.14-0.22-0.3-0.42-0.47-0.59
		c-0.18-0.18-0.39-0.32-0.63-0.43c-0.25-0.11-0.51-0.17-0.78-0.17c-0.32,0-0.61,0.06-0.86,0.17c-0.25,0.12-0.44,0.27-0.58,0.46
		c-0.13,0.19-0.23,0.39-0.3,0.6c-0.07,0.21-0.1,0.42-0.1,0.64c0,0.16,0.02,0.32,0.06,0.47c0.04,0.15,0.09,0.29,0.15,0.4
		c0.06,0.12,0.14,0.24,0.25,0.36c0.11,0.12,0.21,0.22,0.3,0.31c0.09,0.08,0.21,0.18,0.37,0.29c0.16,0.11,0.29,0.2,0.39,0.26
		c0.1,0.06,0.24,0.15,0.42,0.26c0.18,0.11,0.32,0.19,0.42,0.26c0.09,0.06,0.24,0.15,0.44,0.27s0.37,0.22,0.49,0.3
		c0.13,0.08,0.29,0.19,0.48,0.32c0.19,0.14,0.35,0.26,0.47,0.37c0.12,0.11,0.26,0.24,0.4,0.4c0.15,0.16,0.26,0.32,0.34,0.47
		c0.08,0.15,0.15,0.32,0.21,0.52c0.06,0.19,0.08,0.39,0.08,0.59c0,0.45-0.1,0.87-0.29,1.26c-0.2,0.39-0.46,0.72-0.79,0.98
		c-0.33,0.26-0.7,0.47-1.13,0.62s-0.86,0.22-1.31,0.22c-0.26,0-0.55-0.02-0.85-0.06c-0.31-0.04-0.56-0.08-0.76-0.12
		c-0.2-0.04-0.46-0.1-0.77-0.17c-0.31-0.07-0.53-0.12-0.64-0.14c-0.09-0.44-0.17-0.95-0.24-1.53c-0.07-0.58-0.11-0.94-0.11-1.07
		c0.13-0.13,0.28-0.2,0.44-0.2c0.11,0,0.17,0.05,0.18,0.15c0.03,0.16,0.08,0.33,0.15,0.52c0.06,0.18,0.17,0.4,0.32,0.66
		c0.15,0.26,0.32,0.48,0.51,0.68c0.19,0.2,0.45,0.36,0.77,0.5c0.32,0.14,0.67,0.21,1.05,0.21c0.57,0,1.05-0.18,1.44-0.55
		c0.39-0.37,0.58-0.87,0.58-1.5c0-0.17-0.02-0.33-0.05-0.48c-0.03-0.15-0.08-0.28-0.13-0.39c-0.05-0.11-0.13-0.22-0.23-0.33
		c-0.1-0.11-0.19-0.2-0.27-0.27c-0.08-0.07-0.2-0.16-0.34-0.25c-0.14-0.09-0.27-0.17-0.37-0.23c-0.1-0.06-0.24-0.14-0.42-0.23
		c-0.18-0.1-0.32-0.17-0.42-0.24c-0.24-0.14-0.39-0.23-0.45-0.26c-0.06-0.04-0.21-0.13-0.43-0.27c-0.22-0.14-0.38-0.24-0.46-0.31
		c-0.08-0.06-0.22-0.17-0.4-0.32c-0.19-0.15-0.32-0.27-0.4-0.37c-0.08-0.1-0.18-0.23-0.3-0.38c-0.12-0.16-0.21-0.31-0.26-0.45
		c-0.05-0.14-0.1-0.3-0.15-0.47c-0.04-0.18-0.07-0.36-0.07-0.54c0-0.57,0.16-1.09,0.47-1.55c0.32-0.46,0.72-0.81,1.22-1.05
		C35.11,53.02,35.64,52.9,36.21,52.9"/>
	<path d="M79.43,56.34c0.27,0,0.55,0.04,0.83,0.13c0.28,0.09,0.53,0.21,0.77,0.38c0.24,0.16,0.43,0.38,0.58,0.64
		c0.15,0.26,0.22,0.56,0.22,0.88c0,0.4-0.16,0.79-0.49,1.17c-0.33,0.37-0.7,0.63-1.12,0.77c0.51,0.84,1.14,1.76,1.9,2.77
		c0.18,0.23,0.36,0.4,0.56,0.51c0.2,0.11,0.45,0.17,0.77,0.2c0.02,0.04,0.03,0.1,0.02,0.18c-0.01,0.08-0.02,0.13-0.03,0.16
		c-0.76,0-1.28-0.05-1.55-0.14c-0.25-0.09-0.44-0.2-0.58-0.32c-0.07-0.06-0.13-0.13-0.19-0.2c-0.1-0.14-0.35-0.5-0.76-1.1
		c-0.4-0.6-0.77-1.16-1.12-1.69c-0.06-0.09-0.18-0.14-0.35-0.14h-0.62v2.19c0,0.46,0.02,0.75,0.06,0.87
		c0.02,0.05,0.13,0.1,0.33,0.14c0.2,0.04,0.36,0.05,0.48,0.05c0.02,0.03,0.04,0.09,0.04,0.17c0,0.08-0.01,0.14-0.04,0.17
		c-0.8-0.04-1.26-0.06-1.38-0.06c-0.12,0-0.58,0.02-1.39,0.06c-0.03-0.03-0.04-0.09-0.04-0.17c0-0.08,0.01-0.14,0.04-0.17
		c0.12,0,0.28-0.02,0.48-0.05c0.2-0.04,0.31-0.08,0.33-0.14c0.03-0.1,0.05-0.39,0.06-0.87l-0.01-5.02c0-0.45-0.02-0.74-0.06-0.87
		c-0.02-0.05-0.13-0.1-0.33-0.14c-0.2-0.04-0.36-0.05-0.48-0.05c-0.02-0.03-0.04-0.09-0.04-0.17c0-0.08,0.01-0.14,0.04-0.17
		c0.8,0.04,1.27,0.06,1.39,0.06c0.13,0,0.38,0,0.75-0.01C78.87,56.34,79.18,56.34,79.43,56.34 M80.72,58.48
		c0-0.55-0.15-0.98-0.44-1.29c-0.29-0.32-0.75-0.47-1.37-0.47c-0.36,0-0.55,0.04-0.59,0.12c-0.04,0.09-0.06,0.39-0.06,0.88
		l0.01,2.46h0.63c0.48,0,0.91-0.16,1.27-0.47C80.54,59.39,80.72,58.98,80.72,58.48"/>
	<path d="M85.96,56.4c0.17,0,0.33,0.01,0.49,0.03c0.15,0.02,0.27,0.04,0.37,0.07c0.1,0.02,0.24,0.06,0.42,0.11
		c0.18,0.05,0.35,0.09,0.49,0.12c0.05,0.34,0.11,0.9,0.16,1.67c0,0.04-0.02,0.07-0.08,0.09c-0.06,0.02-0.11,0.04-0.17,0.04
		c-0.05,0-0.1-0.02-0.13-0.05c-0.02-0.12-0.05-0.26-0.1-0.4c-0.05-0.14-0.13-0.29-0.22-0.45c-0.1-0.15-0.21-0.29-0.33-0.41
		c-0.12-0.12-0.27-0.22-0.44-0.3c-0.17-0.08-0.36-0.12-0.55-0.12c-0.23,0-0.43,0.04-0.6,0.12c-0.18,0.08-0.31,0.19-0.4,0.32
		c-0.09,0.13-0.16,0.27-0.21,0.42c-0.04,0.14-0.07,0.29-0.07,0.45c0,0.11,0.01,0.22,0.04,0.33c0.03,0.11,0.06,0.2,0.1,0.28
		c0.04,0.08,0.1,0.17,0.18,0.25c0.08,0.08,0.15,0.16,0.21,0.21c0.06,0.06,0.15,0.13,0.26,0.2c0.11,0.08,0.2,0.14,0.27,0.18
		c0.07,0.05,0.17,0.11,0.3,0.18c0.13,0.08,0.22,0.14,0.29,0.18c0.06,0.04,0.16,0.1,0.31,0.19c0.14,0.09,0.26,0.16,0.34,0.21
		c0.09,0.05,0.2,0.13,0.34,0.23s0.25,0.18,0.33,0.26c0.09,0.08,0.18,0.17,0.28,0.28c0.1,0.11,0.18,0.22,0.24,0.33
		c0.06,0.11,0.11,0.23,0.15,0.36c0.04,0.14,0.06,0.27,0.06,0.42c0,0.31-0.07,0.61-0.21,0.88c-0.14,0.27-0.32,0.5-0.55,0.69
		c-0.23,0.18-0.49,0.33-0.79,0.43c-0.3,0.1-0.6,0.16-0.92,0.16c-0.18,0-0.38-0.01-0.6-0.04s-0.39-0.05-0.53-0.08
		s-0.32-0.07-0.54-0.12c-0.22-0.05-0.37-0.08-0.45-0.1c-0.06-0.31-0.12-0.67-0.17-1.07c-0.05-0.41-0.08-0.66-0.08-0.75
		c0.09-0.09,0.2-0.14,0.31-0.14c0.07,0,0.12,0.04,0.13,0.11c0.02,0.11,0.06,0.23,0.1,0.36c0.05,0.13,0.12,0.28,0.22,0.46
		c0.1,0.18,0.22,0.34,0.36,0.48c0.14,0.14,0.31,0.26,0.54,0.35c0.22,0.1,0.47,0.15,0.74,0.15c0.4,0,0.73-0.13,1.01-0.39
		c0.27-0.26,0.41-0.61,0.41-1.05c0-0.12-0.01-0.23-0.04-0.33c-0.02-0.11-0.05-0.2-0.09-0.28c-0.04-0.08-0.09-0.16-0.16-0.23
		c-0.07-0.08-0.13-0.14-0.19-0.19c-0.06-0.05-0.14-0.11-0.24-0.17c-0.1-0.06-0.19-0.12-0.26-0.16c-0.07-0.04-0.17-0.09-0.29-0.16
		c-0.12-0.07-0.22-0.12-0.3-0.17c-0.17-0.1-0.27-0.16-0.31-0.18c-0.05-0.03-0.15-0.09-0.3-0.19c-0.16-0.1-0.26-0.17-0.32-0.21
		c-0.06-0.05-0.15-0.12-0.28-0.22c-0.13-0.1-0.22-0.19-0.28-0.26c-0.06-0.07-0.13-0.16-0.21-0.27c-0.09-0.11-0.15-0.21-0.18-0.31
		c-0.04-0.1-0.07-0.21-0.1-0.33c-0.03-0.12-0.05-0.25-0.05-0.38c0-0.4,0.11-0.76,0.33-1.08c0.22-0.32,0.51-0.57,0.86-0.73
		C85.19,56.48,85.57,56.4,85.96,56.4"/>
	<path d="M89.42,56.45c0.11,0,0.57-0.02,1.38-0.06c0.03,0.03,0.04,0.09,0.04,0.19c0,0.09-0.02,0.16-0.04,0.19
		c-0.12,0-0.28,0.02-0.48,0.05c-0.2,0.03-0.31,0.08-0.33,0.14c-0.04,0.13-0.06,0.42-0.06,0.87v2.06l0.02,0.04
		c1.15,0.02,1.77,0.03,1.85,0.03c0.14,0,0.74-0.01,1.8-0.03c0.02-0.02,0.02-0.03,0.02-0.05v-2.05c0-0.46-0.02-0.75-0.06-0.87
		c-0.02-0.06-0.13-0.1-0.33-0.14c-0.2-0.04-0.36-0.05-0.48-0.05c-0.02-0.03-0.04-0.09-0.04-0.19c0-0.09,0.01-0.16,0.04-0.19
		c0.8,0.04,1.27,0.06,1.39,0.06c0.11,0,0.57-0.02,1.38-0.06c0.03,0.03,0.04,0.09,0.04,0.19c0,0.09-0.01,0.16-0.04,0.19
		c-0.12,0-0.28,0.02-0.48,0.05c-0.2,0.03-0.31,0.08-0.33,0.14c-0.04,0.13-0.06,0.42-0.06,0.87v4.95c0,0.46,0.02,0.75,0.06,0.87
		c0.02,0.06,0.13,0.1,0.33,0.14c0.2,0.04,0.37,0.05,0.48,0.05c0.02,0.03,0.04,0.09,0.04,0.19c0,0.09-0.01,0.16-0.04,0.19
		c-0.8-0.04-1.26-0.06-1.38-0.06c-0.12,0-0.58,0.02-1.39,0.06c-0.03-0.03-0.04-0.09-0.04-0.19c0-0.09,0.02-0.16,0.04-0.19
		c0.12,0,0.28-0.02,0.48-0.05c0.2-0.04,0.31-0.08,0.33-0.14c0.04-0.13,0.06-0.42,0.06-0.87v-2.33L93.6,60.4
		c-0.09,0-0.36-0.01-0.8-0.03c-0.44-0.01-0.77-0.02-1-0.02c-1.15,0-1.77,0.02-1.86,0.07l-0.01,0.02v2.33c0,0.46,0.02,0.75,0.06,0.87
		c0.02,0.06,0.13,0.1,0.33,0.14c0.2,0.04,0.37,0.05,0.48,0.05c0.02,0.03,0.04,0.09,0.04,0.19c0,0.09-0.01,0.16-0.04,0.19
		c-0.8-0.04-1.26-0.06-1.38-0.06c-0.12,0-0.58,0.02-1.39,0.06c-0.03-0.03-0.04-0.09-0.04-0.19c0-0.09,0.02-0.16,0.04-0.19
		c0.12,0,0.28-0.02,0.48-0.05c0.2-0.04,0.31-0.08,0.33-0.14c0.04-0.13,0.06-0.42,0.06-0.87v-4.95c0-0.46-0.02-0.75-0.06-0.87
		c-0.02-0.06-0.13-0.1-0.33-0.14c-0.2-0.04-0.37-0.05-0.48-0.05C88.01,56.73,88,56.67,88,56.58c0-0.09,0.01-0.16,0.04-0.19
		C88.84,56.43,89.3,56.45,89.42,56.45"/>
	<path d="M97.22,56.45c0.11,0,0.57-0.02,1.38-0.06c0.03,0.03,0.04,0.09,0.04,0.17c0,0.08-0.02,0.14-0.04,0.17
		c-0.12,0-0.28,0.02-0.48,0.05s-0.31,0.08-0.33,0.14c-0.04,0.13-0.06,0.42-0.06,0.87v5.02c0,0.46,0.02,0.75,0.06,0.87
		c0.02,0.05,0.13,0.1,0.33,0.14s0.37,0.05,0.48,0.05c0.02,0.03,0.04,0.09,0.04,0.17c0,0.08-0.01,0.14-0.04,0.17
		c-0.8-0.04-1.26-0.06-1.38-0.06c-0.12,0-0.58,0.02-1.39,0.06c-0.03-0.03-0.04-0.09-0.04-0.17c0-0.08,0.02-0.14,0.04-0.17
		c0.12,0,0.28-0.02,0.48-0.05c0.2-0.04,0.31-0.08,0.33-0.14c0.04-0.13,0.06-0.42,0.06-0.87v-5.02c0-0.46-0.02-0.75-0.06-0.87
		c-0.02-0.06-0.13-0.1-0.33-0.14c-0.2-0.04-0.37-0.05-0.48-0.05c-0.02-0.03-0.04-0.09-0.04-0.17c0-0.08,0.01-0.14,0.04-0.17
		C96.63,56.43,97.1,56.45,97.22,56.45"/>
	<path d="M104.54,58.54c0,0.71-0.24,1.29-0.71,1.72c-0.48,0.43-1.1,0.65-1.87,0.65c-0.21,0-0.38-0.03-0.51-0.09
		c-0.11-0.07-0.16-0.16-0.16-0.26c0-0.01,0-0.02,0.01-0.03c0-0.01,0.01-0.02,0.02-0.03s0.02-0.01,0.04-0.01
		c0.2,0.05,0.35,0.08,0.45,0.08c0.49,0,0.89-0.16,1.2-0.49s0.47-0.77,0.47-1.35c0-0.6-0.16-1.07-0.49-1.42
		c-0.33-0.35-0.81-0.52-1.45-0.52c-0.36,0-0.55,0.04-0.59,0.12c-0.04,0.09-0.06,0.39-0.06,0.88v5.01c0,0.46,0.02,0.74,0.06,0.87
		c0.02,0.06,0.13,0.1,0.33,0.14s0.36,0.05,0.48,0.05c0.02,0.03,0.04,0.09,0.04,0.17c0,0.08-0.01,0.14-0.04,0.17
		c-0.8-0.04-1.26-0.06-1.38-0.06c-0.12,0-0.58,0.02-1.39,0.06c-0.03-0.03-0.04-0.09-0.04-0.17c0-0.08,0.02-0.14,0.04-0.17
		c0.12,0,0.28-0.02,0.48-0.05c0.2-0.04,0.31-0.08,0.33-0.14c0.04-0.13,0.06-0.42,0.06-0.87v-5.02c0-0.46-0.02-0.75-0.06-0.87
		c-0.02-0.05-0.13-0.1-0.33-0.13c-0.2-0.04-0.36-0.05-0.48-0.05c-0.02-0.03-0.04-0.09-0.04-0.17c0-0.08,0.01-0.14,0.04-0.17
		c0.8,0.04,1.27,0.06,1.39,0.06c0.13,0,0.38,0,0.75-0.01c0.36-0.01,0.67-0.01,0.92-0.01c0.43,0,0.83,0.08,1.2,0.24
		c0.37,0.16,0.69,0.4,0.93,0.73C104.41,57.72,104.54,58.11,104.54,58.54"/>
	<path class="st5" d="M35.56,76.67l-0.1,0c-1.14-0.06-1.85-0.08-2.12-0.08c-0.27,0-0.61,0.01-1.03,0.04
		c-0.42,0.03-0.74,0.04-0.95,0.04h-0.09l-0.06-0.07c-0.08-0.09-0.11-0.21-0.11-0.38c0-0.16,0.03-0.28,0.1-0.36l0.06-0.08h0.1
		c0.16,0,0.38-0.02,0.65-0.07c0.2-0.03,0.28-0.07,0.32-0.08c0.03-0.14,0.07-0.44,0.07-1.15v-7.18c0-0.74-0.04-1.03-0.07-1.15
		c-0.03-0.02-0.12-0.05-0.32-0.08c-0.28-0.05-0.5-0.07-0.65-0.07h-0.1l-0.06-0.08c-0.06-0.08-0.09-0.2-0.1-0.36
		c0-0.17,0.03-0.3,0.11-0.38l0.07-0.07l0.1,0c1.41,0.07,1.85,0.08,1.97,0.08c0.5,0,1.38-0.02,2.6-0.06
		c1.23-0.04,2.18-0.06,2.81-0.06h0.18l0.02,0.18c0.04,0.32,0.13,0.74,0.25,1.27c0.13,0.54,0.2,0.87,0.23,1.01l0.02,0.11l-0.08,0.08
		c-0.1,0.1-0.24,0.14-0.45,0.14c-0.34,0-0.42-0.2-0.44-0.28c-0.16-0.56-0.37-0.94-0.64-1.13c-0.27-0.19-0.65-0.29-1.1-0.29H35.3
		c-0.69,0-0.91,0.06-0.97,0.08c-0.03,0.13-0.06,0.43-0.06,1.09v3.02c0,0,0.01,0,0.01,0c0.13,0.01,0.3,0.02,0.51,0.02h0.89
		c0.28,0,0.49,0,0.65-0.01c0.14-0.01,0.28-0.02,0.41-0.05c0.15-0.03,0.2-0.06,0.22-0.07c0.04-0.03,0.08-0.08,0.13-0.14
		c0.04-0.06,0.08-0.14,0.1-0.23l0.11-0.42c0.01-0.06,0.02-0.11,0.04-0.16c0.02-0.08,0.11-0.26,0.45-0.26c0.19,0,0.34,0.05,0.43,0.14
		l0.06,0.06v0.09v3.18v0.09l-0.06,0.06c-0.09,0.09-0.22,0.13-0.41,0.13c-0.32,0-0.42-0.17-0.46-0.27c-0.15-0.55-0.22-0.76-0.25-0.83
		c-0.04-0.08-0.09-0.15-0.14-0.18c-0.04-0.02-0.29-0.1-1.67-0.1c-0.63,0-0.9,0.03-1,0.06v3.03c0,0.7,0.03,1.01,0.06,1.14
		c0.04,0.02,0.14,0.05,0.39,0.09c0.33,0.05,0.58,0.07,0.76,0.07h0.1l0.06,0.08c0.06,0.08,0.09,0.2,0.1,0.36
		c0,0.17-0.03,0.3-0.1,0.38L35.56,76.67z M31.51,76.17c0,0.01,0,0.03,0,0.05c0,0.01,0,0.02,0,0.03c0.2,0,0.46-0.02,0.78-0.04
		c0.43-0.03,0.78-0.04,1.06-0.04c0.27,0,0.93,0.03,1.98,0.08v-0.02c0-0.02,0-0.03,0-0.05c-0.18-0.01-0.39-0.03-0.66-0.07
		c-0.47-0.07-0.66-0.16-0.71-0.34c-0.04-0.12-0.09-0.4-0.09-1.3v-3.14c0-0.28,0.3-0.36,1.42-0.36c1.43,0,1.76,0.08,1.89,0.17
		c0.12,0.08,0.21,0.2,0.29,0.35c0.06,0.13,0.15,0.41,0.27,0.85c0.01,0,0.03,0.01,0.08,0.01c0.02,0,0.05,0,0.06,0v-2.91
		c-0.02,0-0.05-0.01-0.08-0.01c-0.03,0-0.05,0-0.06,0c-0.01,0.03-0.01,0.05-0.02,0.09l-0.12,0.44c-0.04,0.14-0.09,0.25-0.16,0.35
		c-0.07,0.1-0.14,0.18-0.22,0.24c-0.09,0.06-0.21,0.11-0.38,0.15c-0.15,0.03-0.31,0.05-0.48,0.05c-0.16,0.01-0.38,0.01-0.66,0.01
		h-0.89c-0.23,0-0.41-0.01-0.55-0.02c-0.13-0.01-0.25-0.04-0.33-0.13l-0.05-0.07l0.01-0.11l0-3.11c0-0.86,0.05-1.13,0.09-1.26
		c0.07-0.21,0.31-0.33,1.36-0.33h1.45c0.54,0,0.99,0.12,1.34,0.36c0.35,0.24,0.61,0.68,0.8,1.33c0.01,0,0.03,0,0.05,0
		c0.02,0,0.05,0,0.06,0c-0.04-0.18-0.1-0.45-0.19-0.83c-0.11-0.44-0.18-0.82-0.23-1.13c-0.62,0-1.5,0.02-2.62,0.06
		c-1.23,0.04-2.11,0.06-2.62,0.06c-0.17,0-0.79-0.03-1.83-0.08v0.02c0,0.02,0,0.03,0,0.05c0.16,0.01,0.35,0.03,0.57,0.07
		c0.29,0.05,0.57,0.13,0.63,0.34c0.04,0.12,0.09,0.4,0.09,1.3v7.18c0,0.9-0.05,1.18-0.09,1.31c-0.06,0.21-0.34,0.28-0.63,0.34
		C31.85,76.14,31.67,76.16,31.51,76.17"/>
	<path d="M33.34,65.36c0.5,0,1.37-0.02,2.61-0.06c1.24-0.04,2.17-0.06,2.8-0.06c0.04,0.32,0.13,0.75,0.26,1.29
		c0.13,0.53,0.2,0.87,0.23,1c-0.06,0.06-0.16,0.08-0.3,0.08c-0.14,0-0.22-0.04-0.24-0.12c-0.17-0.62-0.42-1.04-0.73-1.26
		c-0.31-0.22-0.72-0.32-1.22-0.32H35.3c-0.73,0-1.12,0.06-1.16,0.18c-0.06,0.18-0.08,0.58-0.08,1.19v3.14
		c-0.01,0.04,0.06,0.07,0.19,0.08c0.13,0.01,0.31,0.02,0.53,0.02h0.89c0.28,0,0.5,0,0.66-0.01c0.16-0.01,0.3-0.02,0.44-0.05
		c0.14-0.03,0.24-0.06,0.3-0.11c0.06-0.05,0.12-0.11,0.18-0.19c0.06-0.08,0.1-0.18,0.13-0.29c0.03-0.11,0.07-0.25,0.11-0.42
		c0.01-0.06,0.02-0.11,0.03-0.14c0.02-0.08,0.1-0.12,0.25-0.12c0.13,0,0.23,0.03,0.29,0.08v3.18c-0.04,0.04-0.13,0.07-0.27,0.07
		c-0.15,0-0.24-0.04-0.27-0.13c-0.12-0.44-0.2-0.72-0.26-0.84c-0.06-0.12-0.13-0.21-0.21-0.27c-0.14-0.09-0.73-0.13-1.78-0.13
		c-0.81,0-1.21,0.05-1.21,0.15v3.14c0,0.65,0.03,1.06,0.08,1.24c0.02,0.08,0.2,0.14,0.54,0.19c0.34,0.05,0.6,0.08,0.79,0.08
		c0.03,0.04,0.05,0.13,0.05,0.24c0,0.12-0.02,0.2-0.05,0.24c-1.15-0.06-1.86-0.08-2.13-0.08c-0.27,0-0.62,0.01-1.04,0.04
		c-0.42,0.03-0.73,0.04-0.94,0.04c-0.04-0.04-0.06-0.13-0.05-0.24c0-0.12,0.02-0.2,0.05-0.24c0.17,0,0.4-0.03,0.69-0.08
		c0.29-0.05,0.45-0.12,0.47-0.19c0.06-0.18,0.08-0.59,0.08-1.24v-7.18c0-0.65-0.03-1.06-0.08-1.24c-0.02-0.08-0.18-0.14-0.47-0.19
		c-0.29-0.05-0.52-0.08-0.69-0.08c-0.03-0.04-0.05-0.13-0.05-0.24s0.02-0.2,0.05-0.24C32.5,65.34,33.16,65.36,33.34,65.36"/>
	<path class="st5" d="M44.06,64.37c-0.59,0-1.16-0.11-1.67-0.33c-0.52-0.22-0.96-0.51-1.32-0.88c-0.35-0.37-0.64-0.8-0.84-1.29
		c-0.2-0.49-0.31-1.02-0.31-1.56c0-0.57,0.11-1.12,0.32-1.64c0.21-0.52,0.5-0.98,0.86-1.36c0.36-0.39,0.81-0.7,1.33-0.92
		c0.52-0.23,1.09-0.34,1.68-0.34c0.91,0,1.77,0.08,2.54,0.25l0.14,0.03l0.02,0.14c0.27,1.64,0.27,1.73,0.27,1.78
		c0.01,0.05-0.01,0.18-0.19,0.28c-0.09,0.05-0.18,0.08-0.28,0.08c-0.1,0-0.19-0.02-0.26-0.07l-0.07-0.05l-0.02-0.08
		c-0.2-1.04-0.89-1.55-2.1-1.55c-0.52,0-0.97,0.16-1.38,0.47c-0.42,0.32-0.74,0.73-0.96,1.22c-0.22,0.49-0.33,1-0.33,1.53
		c0,0.36,0.04,0.71,0.12,1.05c0.08,0.34,0.19,0.66,0.35,0.96c0.16,0.3,0.35,0.56,0.57,0.79c0.22,0.22,0.48,0.4,0.8,0.53
		c0.31,0.13,0.65,0.2,1.02,0.2c0.56,0,1.02-0.17,1.42-0.51c0.32-0.28,0.54-0.71,0.65-1.25l0.03-0.15l0.15-0.01c0.03,0,0.05,0,0.07,0
		c0.16,0,0.3,0.04,0.43,0.13l0.09,0.06v0.11c0,0.17-0.05,0.47-0.15,0.96c-0.15,0.7-0.25,0.83-0.33,0.9l-0.02,0.01l-0.02,0.01
		C46.03,64.19,45.15,64.37,44.06,64.37 M43.62,56.48c-0.36,0.04-0.7,0.14-1.02,0.28c-0.47,0.21-0.87,0.48-1.2,0.83
		c-0.33,0.35-0.59,0.76-0.78,1.23c-0.19,0.47-0.28,0.97-0.28,1.48c0,0.49,0.09,0.96,0.27,1.4c0.18,0.44,0.44,0.84,0.75,1.16
		c0.32,0.33,0.71,0.59,1.18,0.79c0.43,0.18,0.89,0.28,1.39,0.29c-0.27-0.03-0.52-0.1-0.76-0.2c-0.36-0.15-0.67-0.36-0.93-0.62
		c-0.25-0.25-0.47-0.55-0.64-0.89c-0.17-0.33-0.31-0.69-0.39-1.06c-0.08-0.37-0.13-0.75-0.13-1.14c0-0.58,0.12-1.15,0.36-1.7
		c0.24-0.55,0.61-1.01,1.08-1.37C42.86,56.73,43.23,56.56,43.62,56.48 M46.78,62.07c-0.14,0.55-0.39,0.99-0.74,1.3
		c-0.29,0.26-0.62,0.43-0.99,0.53c0.55-0.07,1.02-0.22,1.41-0.42c0.02-0.03,0.08-0.17,0.19-0.66C46.73,62.42,46.77,62.2,46.78,62.07
		L46.78,62.07 M44.75,56.47c1.02,0.15,1.66,0.72,1.9,1.71c0,0,0.01,0,0.01,0c-0.02-0.15-0.08-0.53-0.24-1.5
		C45.9,56.56,45.34,56.5,44.75,56.47"/>
	<path d="M44.11,56.25c0.9,0,1.73,0.08,2.49,0.25c0.18,1.08,0.27,1.66,0.27,1.74c0,0.04-0.02,0.07-0.08,0.1
		c-0.06,0.03-0.12,0.05-0.18,0.05c-0.06,0-0.11-0.01-0.14-0.04c-0.22-1.15-0.99-1.72-2.31-1.72c-0.56,0-1.06,0.17-1.51,0.52
		c-0.45,0.34-0.79,0.78-1.02,1.29c-0.23,0.52-0.35,1.05-0.35,1.61c0,0.37,0.04,0.74,0.12,1.09c0.08,0.35,0.2,0.69,0.37,1.01
		c0.17,0.32,0.37,0.6,0.61,0.84c0.24,0.24,0.52,0.43,0.86,0.57c0.34,0.14,0.7,0.21,1.1,0.21c0.61,0,1.13-0.19,1.55-0.57
		c0.35-0.32,0.59-0.77,0.72-1.36c0.14-0.01,0.26,0.02,0.38,0.09c0,0.15-0.05,0.45-0.15,0.91c-0.1,0.46-0.19,0.72-0.26,0.78
		c-0.63,0.35-1.47,0.53-2.53,0.53c-0.57,0-1.1-0.1-1.59-0.31c-0.49-0.21-0.91-0.49-1.25-0.83c-0.34-0.35-0.6-0.76-0.8-1.23
		c-0.19-0.47-0.29-0.97-0.29-1.48c0-0.55,0.1-1.07,0.3-1.56c0.2-0.5,0.47-0.93,0.82-1.29c0.34-0.37,0.77-0.66,1.26-0.88
		C43.01,56.36,43.54,56.25,44.11,56.25"/>
	<g>
		<path class="st5" d="M72.54,60.75h-0.02c-0.1,0-0.19-0.08-0.19-0.19v-1.84c0-0.1,0.08-0.19,0.19-0.19h0.02
			c0.1,0,0.19,0.08,0.19,0.19v1.84C72.72,60.66,72.64,60.75,72.54,60.75"/>
		<path class="st5" d="M71.59,60.23l-0.01-0.01c-0.05-0.09-0.03-0.2,0.06-0.26l1.56-0.97c0.09-0.05,0.2-0.03,0.26,0.06l0.01,0.02
			c0.05,0.09,0.03,0.2-0.06,0.26l-1.56,0.97C71.76,60.35,71.65,60.32,71.59,60.23"/>
		<path class="st5" d="M71.57,59.1l0.01-0.01c0.05-0.09,0.17-0.12,0.26-0.07l1.59,0.92c0.09,0.05,0.12,0.17,0.07,0.26l-0.01,0.02
			c-0.05,0.09-0.17,0.12-0.26,0.07l-1.59-0.92C71.55,59.3,71.51,59.19,71.57,59.1"/>
	</g>
</g>
<g>
	<path d="M14.73,61.94c0-0.14,0.03-0.27,0.08-0.38c0.06-0.11,0.14-0.19,0.24-0.26c0.1-0.06,0.22-0.09,0.36-0.1s0.25,0.02,0.36,0.08
		c0.1,0.06,0.19,0.13,0.25,0.23c0.06,0.1,0.09,0.21,0.1,0.34c0,0.13-0.03,0.24-0.08,0.34s-0.14,0.18-0.24,0.24
		c-0.1,0.06-0.22,0.09-0.36,0.09c-0.01,0-0.02,0-0.03,0c-0.01,0-0.02,0-0.03,0l-0.02-1.19l0.14,0l0.02,1.09l-0.06-0.07
		c0.1,0,0.19-0.02,0.26-0.07c0.08-0.04,0.14-0.1,0.18-0.18s0.06-0.16,0.06-0.25c0-0.09-0.02-0.18-0.07-0.25s-0.11-0.13-0.18-0.17
		s-0.17-0.06-0.27-0.06h-0.03c-0.1,0-0.19,0.03-0.27,0.07s-0.14,0.11-0.18,0.2c-0.04,0.08-0.06,0.18-0.06,0.28
		c0,0.08,0.02,0.16,0.05,0.23s0.08,0.13,0.14,0.18l-0.12,0.11c-0.07-0.06-0.13-0.13-0.17-0.22C14.75,62.15,14.73,62.05,14.73,61.94z
		"/>
	<path d="M14.76,63.05l1.35-0.17l0.02,0.17l-0.37,0.04l0.06-0.04c0.1,0.03,0.19,0.09,0.25,0.17c0.07,0.08,0.11,0.19,0.12,0.32
		c0.02,0.13,0,0.25-0.06,0.35c-0.05,0.1-0.15,0.17-0.28,0.22l0.02-0.08c0.11,0.03,0.21,0.08,0.29,0.18s0.13,0.21,0.15,0.35
		c0.01,0.11,0,0.21-0.03,0.29s-0.09,0.16-0.17,0.21c-0.08,0.06-0.19,0.09-0.32,0.11l-0.79,0.1l-0.02-0.18l0.77-0.09
		c0.14-0.02,0.25-0.07,0.31-0.14c0.06-0.08,0.09-0.18,0.07-0.3c-0.01-0.09-0.04-0.17-0.09-0.23c-0.05-0.06-0.11-0.11-0.19-0.14
		s-0.17-0.04-0.27-0.02l-0.71,0.09l-0.02-0.18l0.77-0.09c0.14-0.02,0.25-0.06,0.31-0.14c0.06-0.08,0.09-0.18,0.07-0.3
		c-0.01-0.09-0.04-0.17-0.09-0.23c-0.05-0.06-0.11-0.11-0.19-0.14c-0.08-0.03-0.17-0.04-0.27-0.02l-0.71,0.09L14.76,63.05z"/>
	<path d="M14.69,66.03l1.81-0.44l0.04,0.17l-0.4,0.1l-0.27,0.05l-0.26,0.09l-0.88,0.21L14.69,66.03z M15.33,66.59
		c-0.03-0.11-0.03-0.22,0-0.33s0.09-0.2,0.18-0.28c0.09-0.08,0.2-0.14,0.35-0.17s0.27-0.04,0.39-0.01c0.11,0.03,0.21,0.08,0.28,0.16
		c0.07,0.08,0.13,0.18,0.15,0.29c0.03,0.13,0.03,0.25,0,0.36c-0.03,0.11-0.09,0.21-0.18,0.29s-0.2,0.14-0.33,0.17
		c-0.13,0.03-0.26,0.03-0.37,0c-0.11-0.03-0.21-0.09-0.29-0.18C15.42,66.83,15.36,66.72,15.33,66.59z M15.49,66.54
		c0.02,0.09,0.06,0.17,0.13,0.24c0.06,0.06,0.14,0.11,0.22,0.13c0.09,0.02,0.18,0.02,0.29,0c0.1-0.03,0.19-0.07,0.25-0.13
		s0.11-0.14,0.14-0.22s0.03-0.17,0-0.27c-0.02-0.09-0.06-0.17-0.13-0.24c-0.06-0.06-0.14-0.11-0.22-0.13
		c-0.09-0.02-0.18-0.02-0.29,0c-0.1,0.02-0.19,0.07-0.26,0.13c-0.07,0.06-0.11,0.13-0.14,0.22C15.46,66.36,15.46,66.45,15.49,66.54z
		"/>
	<path d="M15.81,68.23c-0.04-0.12-0.05-0.25-0.03-0.36c0.02-0.12,0.07-0.22,0.15-0.31c0.08-0.09,0.18-0.16,0.31-0.2
		c0.13-0.04,0.25-0.05,0.37-0.03s0.22,0.08,0.31,0.16c0.09,0.08,0.15,0.18,0.2,0.31c0.04,0.13,0.05,0.25,0.03,0.37
		c-0.02,0.12-0.07,0.22-0.15,0.31c-0.08,0.09-0.18,0.16-0.31,0.2c-0.13,0.04-0.25,0.05-0.37,0.03c-0.12-0.02-0.22-0.08-0.31-0.16
		C15.91,68.46,15.85,68.36,15.81,68.23z M15.96,68.18c0.03,0.09,0.08,0.17,0.15,0.23c0.07,0.06,0.14,0.09,0.23,0.11
		c0.09,0.02,0.19,0.01,0.29-0.03c0.1-0.03,0.18-0.08,0.24-0.15c0.06-0.07,0.1-0.14,0.12-0.23s0.01-0.17-0.02-0.27
		s-0.08-0.17-0.15-0.22c-0.07-0.06-0.14-0.1-0.23-0.11s-0.19-0.01-0.29,0.03c-0.1,0.03-0.18,0.08-0.24,0.15s-0.1,0.15-0.12,0.23
		S15.93,68.09,15.96,68.18z"/>
	<path d="M16.31,69.56l1.03-1.03l0.07,0.16l-0.96,0.95l-0.03-0.07l1.35-0.08l0.06,0.14l-0.96,0.95l-0.03-0.07l1.35-0.09l0.07,0.15
		l-1.45,0.09l-0.07-0.16l0.9-0.9l0.02,0.05l-1.27,0.07L16.31,69.56z"/>
	<path d="M17.47,71.92c-0.07-0.12-0.11-0.25-0.11-0.37c0-0.12,0.03-0.24,0.09-0.34c0.06-0.1,0.15-0.19,0.27-0.26
		c0.12-0.07,0.23-0.1,0.35-0.1c0.12,0,0.23,0.03,0.33,0.09s0.18,0.14,0.25,0.25c0.06,0.11,0.09,0.22,0.09,0.34
		c0,0.12-0.03,0.22-0.1,0.33s-0.15,0.19-0.27,0.25c-0.01,0-0.02,0.01-0.02,0.01c-0.01,0-0.02,0.01-0.03,0.01l-0.59-1.03l0.12-0.07
		l0.54,0.94l-0.08-0.04c0.09-0.05,0.15-0.11,0.2-0.19s0.07-0.15,0.07-0.24c0-0.08-0.02-0.17-0.07-0.25
		c-0.05-0.08-0.11-0.14-0.18-0.19c-0.07-0.04-0.16-0.06-0.24-0.06c-0.09,0-0.18,0.03-0.26,0.08l-0.02,0.01
		c-0.09,0.05-0.16,0.12-0.2,0.2c-0.05,0.08-0.07,0.17-0.06,0.26c0,0.09,0.03,0.19,0.08,0.28c0.04,0.07,0.09,0.13,0.15,0.18
		c0.06,0.05,0.13,0.08,0.21,0.09l-0.05,0.15c-0.09-0.02-0.18-0.05-0.26-0.11S17.52,72.01,17.47,71.92z"/>
	<path d="M18.03,72.82l1.14-0.75l0.1,0.15l-0.31,0.2l0.04-0.05c0.11-0.03,0.21-0.02,0.3,0.03c0.09,0.04,0.18,0.12,0.25,0.23
		l-0.15,0.1c0,0-0.01-0.01-0.01-0.02c0-0.01-0.01-0.01-0.01-0.02c-0.08-0.12-0.18-0.19-0.3-0.21s-0.24,0.01-0.38,0.1l-0.58,0.38
		L18.03,72.82z"/>
	<path d="M23.01,78.19c-0.11-0.09-0.19-0.18-0.24-0.3c-0.05-0.11-0.07-0.23-0.05-0.35s0.06-0.23,0.14-0.34
		c0.08-0.11,0.18-0.19,0.29-0.23c0.11-0.05,0.22-0.07,0.34-0.05s0.23,0.06,0.33,0.13c0.1,0.08,0.18,0.17,0.22,0.28
		c0.04,0.11,0.06,0.22,0.04,0.34S24,77.89,23.92,78c-0.01,0.01-0.01,0.01-0.02,0.02c-0.01,0.01-0.01,0.01-0.02,0.02l-0.95-0.71
		l0.08-0.11l0.87,0.65H23.8c0.06-0.08,0.1-0.16,0.11-0.25s0-0.17-0.03-0.25c-0.03-0.08-0.09-0.15-0.16-0.2
		c-0.07-0.06-0.15-0.09-0.24-0.1c-0.09-0.01-0.17,0-0.25,0.04s-0.15,0.1-0.21,0.18L23,77.32c-0.06,0.08-0.1,0.17-0.11,0.26
		c-0.01,0.09,0,0.18,0.04,0.26s0.1,0.16,0.19,0.22c0.07,0.05,0.14,0.08,0.21,0.1c0.07,0.02,0.15,0.02,0.23,0l0.01,0.16
		c-0.09,0.02-0.19,0.02-0.28,0C23.19,78.3,23.1,78.25,23.01,78.19z"/>
	<path d="M24.34,79.11c-0.11-0.07-0.19-0.16-0.25-0.26s-0.08-0.22-0.07-0.34c0.01-0.12,0.05-0.24,0.12-0.35
		c0.07-0.12,0.16-0.2,0.27-0.26c0.1-0.06,0.22-0.08,0.33-0.08c0.12,0.01,0.23,0.04,0.34,0.11c0.1,0.06,0.18,0.14,0.23,0.24
		c0.05,0.1,0.07,0.2,0.07,0.32c-0.01,0.12-0.05,0.24-0.13,0.36c-0.08,0.12-0.17,0.22-0.27,0.27c-0.1,0.06-0.21,0.09-0.32,0.08
		C24.55,79.2,24.44,79.17,24.34,79.11z M24.44,78.97c0.08,0.05,0.17,0.08,0.26,0.08c0.09,0,0.17-0.02,0.25-0.06
		c0.08-0.04,0.15-0.11,0.2-0.2c0.06-0.09,0.09-0.18,0.09-0.27c0.01-0.09-0.01-0.17-0.05-0.25c-0.04-0.08-0.1-0.14-0.19-0.19
		c-0.08-0.05-0.16-0.08-0.25-0.08c-0.09,0-0.17,0.02-0.25,0.06c-0.08,0.04-0.15,0.11-0.21,0.2c-0.06,0.09-0.09,0.18-0.09,0.27
		c0,0.09,0.01,0.18,0.05,0.25C24.29,78.86,24.36,78.92,24.44,78.97z M24.79,79.37l0.22-0.35l0.16-0.22l0.13-0.25l0.51-0.82l0.16,0.1
		l-1.03,1.63L24.79,79.37z"/>
	<path d="M25.96,80.04c-0.1-0.05-0.18-0.12-0.24-0.2c-0.06-0.08-0.09-0.17-0.09-0.26c0-0.1,0.02-0.21,0.08-0.32l0.36-0.71l0.16,0.08
		l-0.35,0.69c-0.07,0.13-0.08,0.24-0.05,0.34c0.03,0.1,0.1,0.18,0.22,0.24c0.08,0.04,0.17,0.06,0.25,0.06s0.15-0.03,0.22-0.08
		c0.07-0.05,0.12-0.12,0.17-0.21l0.33-0.63l0.16,0.08l-0.62,1.21l-0.16-0.08l0.17-0.33l-0.01,0.07c-0.08,0.07-0.18,0.11-0.29,0.12
		S26.07,80.09,25.96,80.04z"/>
	<path d="M27.63,80.81c-0.12-0.05-0.23-0.13-0.3-0.22c-0.08-0.1-0.12-0.2-0.14-0.32c-0.02-0.12,0-0.24,0.05-0.37
		c0.05-0.13,0.13-0.23,0.22-0.3c0.1-0.07,0.2-0.12,0.32-0.13c0.12-0.01,0.24,0.01,0.37,0.06c0.11,0.04,0.2,0.11,0.26,0.18
		s0.11,0.17,0.13,0.27l-0.16,0.03c-0.02-0.08-0.05-0.15-0.1-0.21c-0.05-0.06-0.11-0.1-0.19-0.13c-0.09-0.04-0.18-0.05-0.27-0.04
		c-0.09,0.01-0.17,0.04-0.24,0.1c-0.07,0.06-0.13,0.13-0.17,0.23c-0.04,0.1-0.06,0.19-0.04,0.28s0.04,0.17,0.1,0.24
		c0.06,0.07,0.13,0.12,0.22,0.16c0.08,0.03,0.15,0.04,0.23,0.04c0.08,0,0.15-0.03,0.22-0.07l0.09,0.14c-0.08,0.06-0.18,0.1-0.28,0.1
		S27.74,80.85,27.63,80.81z"/>
	<path d="M28.92,81.28c-0.1-0.03-0.18-0.07-0.24-0.13s-0.1-0.12-0.12-0.19c-0.02-0.07-0.02-0.14,0.01-0.21
		c0.02-0.07,0.06-0.12,0.11-0.17c0.05-0.04,0.12-0.07,0.2-0.08c0.08-0.01,0.19,0,0.31,0.04l0.45,0.15l-0.04,0.13l-0.44-0.14
		c-0.13-0.04-0.22-0.05-0.28-0.02c-0.06,0.03-0.1,0.08-0.13,0.14c-0.02,0.07-0.01,0.14,0.03,0.21c0.04,0.06,0.12,0.11,0.22,0.15
		c0.1,0.03,0.19,0.04,0.28,0.01c0.09-0.02,0.16-0.07,0.22-0.15v0.13c-0.06,0.08-0.14,0.13-0.24,0.15S29.04,81.32,28.92,81.28z
		 M29.37,81.41l0.09-0.29l0.01-0.05l0.16-0.48c0.04-0.11,0.03-0.2-0.01-0.28c-0.04-0.08-0.12-0.14-0.25-0.18
		c-0.08-0.03-0.17-0.04-0.25-0.04c-0.08,0-0.16,0.02-0.23,0.05l-0.04-0.16c0.08-0.04,0.18-0.05,0.28-0.05c0.1,0,0.2,0.02,0.31,0.05
		c0.17,0.05,0.28,0.14,0.35,0.25c0.06,0.11,0.07,0.25,0.01,0.42l-0.26,0.8L29.37,81.41z"/>
	<path d="M30.18,80.39l0.04-0.15l0.82,0.21L31,80.6L30.18,80.39z M30.51,81.74c-0.12-0.03-0.21-0.09-0.26-0.17
		c-0.05-0.08-0.06-0.19-0.03-0.31l0.31-1.24l0.18,0.04l-0.31,1.23c-0.02,0.08-0.01,0.14,0.01,0.19s0.08,0.09,0.15,0.11
		c0.08,0.02,0.15,0.01,0.21-0.02l0.03,0.14c-0.04,0.02-0.09,0.04-0.15,0.04C30.61,81.75,30.56,81.75,30.51,81.74z"/>
	<path d="M31.69,81.99c-0.14-0.03-0.26-0.08-0.35-0.16c-0.09-0.08-0.16-0.17-0.2-0.29c-0.04-0.11-0.05-0.24-0.02-0.37
		c0.02-0.13,0.07-0.24,0.15-0.34s0.17-0.16,0.28-0.2c0.11-0.04,0.23-0.05,0.35-0.03c0.13,0.02,0.23,0.07,0.32,0.15
		s0.15,0.17,0.19,0.28s0.04,0.24,0.02,0.37c0,0.01,0,0.02-0.01,0.03c0,0.01,0,0.02-0.01,0.03l-1.17-0.22l0.03-0.14l1.07,0.2
		l-0.08,0.04c0.02-0.1,0.01-0.19-0.01-0.27c-0.03-0.08-0.07-0.15-0.14-0.21c-0.06-0.06-0.14-0.09-0.24-0.11
		c-0.09-0.02-0.18-0.01-0.26,0.02c-0.08,0.03-0.15,0.08-0.2,0.15c-0.06,0.07-0.09,0.15-0.11,0.25l-0.01,0.03
		c-0.02,0.1-0.01,0.2,0.02,0.28s0.08,0.16,0.16,0.22s0.16,0.1,0.26,0.12c0.08,0.02,0.16,0.01,0.24,0c0.08-0.02,0.15-0.05,0.21-0.1
		l0.08,0.14c-0.07,0.06-0.16,0.1-0.25,0.12C31.9,82.01,31.8,82.01,31.69,81.99z"/>
	<path d="M34.75,82.31c-0.14,0-0.27-0.04-0.37-0.1c-0.11-0.06-0.19-0.15-0.24-0.25c-0.06-0.11-0.08-0.23-0.08-0.36
		s0.04-0.25,0.1-0.35S34.3,81.06,34.4,81c0.1-0.06,0.22-0.08,0.34-0.08c0.13,0,0.24,0.04,0.34,0.1c0.1,0.06,0.17,0.15,0.23,0.25
		c0.05,0.11,0.08,0.23,0.07,0.36c0,0.01,0,0.02,0,0.03c0,0.01,0,0.02,0,0.03l-1.18-0.04l0-0.14l1.09,0.04l-0.07,0.05
		c0-0.1-0.01-0.19-0.05-0.27c-0.04-0.08-0.1-0.14-0.17-0.19c-0.07-0.05-0.15-0.07-0.25-0.07c-0.09,0-0.18,0.02-0.25,0.06
		c-0.08,0.04-0.14,0.1-0.18,0.18c-0.04,0.08-0.07,0.17-0.07,0.26l0,0.03c0,0.1,0.02,0.2,0.06,0.28s0.1,0.14,0.19,0.19
		s0.17,0.07,0.28,0.08c0.08,0,0.16-0.01,0.23-0.04c0.07-0.03,0.14-0.07,0.19-0.13l0.1,0.12c-0.06,0.07-0.14,0.12-0.23,0.16
		C34.96,82.3,34.86,82.32,34.75,82.31z"/>
	<path d="M35.57,82.32l0.55-0.77l0,0.09l-0.57-0.69l0.21-0.01l0.47,0.57h-0.08l0.43-0.6l0.2-0.01l-0.53,0.73l0-0.1l0.61,0.72
		l-0.21,0.01l-0.5-0.6l0.07,0.01l-0.44,0.63L35.57,82.32z"/>
	<path d="M37.77,82.19c-0.13,0.01-0.26,0-0.37-0.05c-0.11-0.05-0.2-0.12-0.28-0.22s-0.11-0.21-0.13-0.35
		c-0.01-0.14,0-0.26,0.05-0.37c0.05-0.11,0.12-0.2,0.22-0.27c0.1-0.07,0.22-0.11,0.35-0.13c0.12-0.01,0.22,0,0.32,0.03
		c0.1,0.03,0.18,0.09,0.24,0.18l-0.13,0.11C38,81.07,37.94,81.02,37.87,81s-0.15-0.03-0.23-0.02c-0.1,0.01-0.18,0.04-0.25,0.09
		c-0.07,0.05-0.13,0.12-0.16,0.2s-0.05,0.18-0.04,0.29c0.01,0.11,0.04,0.2,0.1,0.27s0.12,0.13,0.2,0.16s0.17,0.05,0.27,0.04
		c0.08-0.01,0.15-0.03,0.22-0.07s0.12-0.1,0.16-0.17l0.15,0.08c-0.04,0.09-0.11,0.17-0.2,0.22C37.99,82.15,37.89,82.18,37.77,82.19z
		"/>
	<path d="M39.28,81.97c-0.14,0.03-0.27,0.02-0.38-0.02c-0.12-0.04-0.21-0.1-0.29-0.2s-0.13-0.2-0.15-0.34s-0.02-0.26,0.02-0.37
		s0.1-0.21,0.19-0.28s0.19-0.13,0.32-0.15c0.13-0.02,0.24-0.02,0.35,0.02s0.2,0.1,0.28,0.2s0.13,0.21,0.15,0.34
		c0,0.01,0,0.02,0,0.03c0,0.01,0,0.02,0,0.03l-1.17,0.22l-0.02-0.13l1.07-0.2l-0.06,0.07c-0.02-0.1-0.05-0.18-0.11-0.25
		c-0.06-0.07-0.12-0.12-0.2-0.15c-0.08-0.03-0.17-0.04-0.26-0.02c-0.09,0.02-0.17,0.05-0.24,0.11c-0.07,0.06-0.11,0.13-0.14,0.21
		c-0.03,0.08-0.03,0.18-0.01,0.27l0,0.03c0.02,0.1,0.06,0.19,0.12,0.26c0.06,0.07,0.13,0.12,0.22,0.15s0.19,0.03,0.29,0.01
		c0.08-0.02,0.15-0.04,0.22-0.09c0.06-0.04,0.12-0.1,0.16-0.17l0.12,0.1c-0.05,0.08-0.11,0.15-0.19,0.2
		C39.48,81.91,39.38,81.95,39.28,81.97z"/>
	<path d="M40.3,81.74l-0.46-1.87l0.18-0.04l0.46,1.87L40.3,81.74z"/>
</g>
<path d="M33.61,81.76c0,0.14-0.12,0.26-0.26,0.26c-0.14,0-0.26-0.12-0.26-0.26s0.12-0.26,0.26-0.26
	C33.49,81.5,33.61,81.62,33.61,81.76z"/>
</svg>
