<svg width="300" height="300" viewBox="0 0 300 300" fill="none" xmlns="http://www.w3.org/2000/svg">
<path d="M227.334 187.734C232.401 173.067 234.134 170 240.667 163.2C244.667 159.2 250.534 154.667 254.001 153.2C259.467 150.8 261.067 148 256.801 148C253.734 148 242.667 139.734 237.734 133.867C235.201 130.667 231.601 124.267 230.001 119.6C226.801 110.934 223.067 108.267 223.601 115.067C224.001 121.6 230.267 133.067 237.467 140.667L244.401 148H142.134C52.2673 148 40.0007 148.267 40.0007 150C40.0007 151.734 52.2673 152 142.134 152H244.401L237.467 159.334C230.401 166.8 224.001 178.4 223.601 184.8C223.334 188.534 226.267 190.8 227.334 187.734Z" fill="white"/>
</svg>
